<?xml version="1.0" standalone="no"?>
<!DOCTYPE svg PUBLIC "-//W3C//DTD SVG 20010904//EN"
 "http://www.w3.org/TR/2001/REC-SVG-20010904/DTD/svg10.dtd">
<svg version="1.0" xmlns="http://www.w3.org/2000/svg"
 width="518.000000pt" height="518.000000pt" viewBox="0 0 518.000000 518.000000"
 preserveAspectRatio="xMidYMid meet">
<metadata>
Created by potrace 1.11, written by Peter Selinger 2001-2013
</metadata>
<g transform="translate(0.000000,518.000000) scale(0.100000,-0.100000)"
fill="#000000" stroke="none">
<path d="M3527 5084 c-2 -2 -28 -7 -58 -10 -82 -8 -103 -11 -119 -17 -8 -3
-49 -15 -90 -27 -162 -46 -370 -136 -470 -203 -80 -54 -162 -128 -300 -268
-172 -175 -164 -167 -247 -279 -156 -212 -275 -452 -254 -513 8 -23 17 -23 39
-1 15 16 17 16 20 2 2 -9 -2 -36 -9 -60 -17 -57 -16 -56 -18 -73 -2 -25 -31
-17 -42 12 -18 49 -76 113 -232 259 -30 28 -57 56 -61 62 -4 6 25 0 64 -13
127 -43 171 -40 98 8 -71 46 -323 126 -448 143 -25 3 -48 8 -52 10 -4 3 -26 7
-50 10 -24 3 -54 8 -68 10 -56 10 -238 25 -310 26 -124 1 -249 -25 -355 -71
-164 -73 -314 -158 -345 -196 -14 -17 -13 -18 18 -12 19 4 55 17 80 30 26 13
50 24 54 25 5 1 34 14 65 28 78 35 135 55 141 50 2 -3 -16 -15 -40 -27 -23
-12 -69 -39 -100 -60 -31 -22 -59 -39 -62 -39 -21 0 -246 -262 -246 -285 0 -4
-8 -19 -18 -33 -18 -26 -66 -142 -78 -187 -18 -72 -28 -214 -28 -390 -1 -150
4 -205 24 -280 6 -22 13 -49 15 -59 7 -29 45 -148 55 -171 5 -11 25 -60 45
-110 20 -49 53 -121 73 -160 58 -113 61 -117 250 -364 89 -117 123 -141 152
-106 25 30 80 16 132 -33 33 -31 34 -41 8 -92 -20 -40 -20 -40 -1 -59 11 -11
37 -29 58 -39 40 -21 203 -78 244 -86 13 -2 79 -18 147 -35 67 -17 130 -33
140 -34 72 -13 141 -70 191 -158 40 -69 71 -130 91 -179 12 -30 26 -64 31 -75
5 -11 20 -51 33 -90 40 -114 50 -135 64 -135 12 0 13 15 9 78 -6 77 -21 166
-37 212 -20 60 -66 178 -81 210 -24 50 -14 55 25 13 26 -29 34 -33 39 -20 3 9
-3 27 -14 41 -31 40 -4 42 54 4 61 -41 227 -202 313 -303 32 -38 64 -75 69
-81 6 -6 26 -31 47 -55 20 -24 46 -55 58 -69 12 -14 25 -30 28 -35 4 -6 22
-23 41 -38 25 -21 37 -25 46 -17 7 6 12 16 11 23 -9 43 -24 83 -64 167 -50
107 -81 190 -75 205 4 13 -14 33 -102 110 -37 33 -80 71 -94 84 -14 13 -73 62
-131 109 -58 47 -121 100 -140 117 -20 16 -51 41 -69 55 -38 28 -237 183 -264
205 -9 8 -22 15 -27 15 -6 0 -10 4 -10 9 0 5 -15 18 -32 30 -18 11 -42 28 -53
38 -11 10 -42 36 -70 58 -27 22 -52 42 -55 45 -3 3 -34 29 -70 59 -110 92
-300 276 -372 361 -56 67 -168 230 -168 245 0 6 -5 16 -11 22 -7 7 -28 49 -49
94 -35 78 -37 87 -39 200 -1 66 2 119 6 119 5 0 10 -12 11 -26 7 -91 89 -324
114 -324 11 0 10 47 -1 68 -5 9 -11 35 -15 57 -3 22 -9 56 -14 75 -13 58 -6
210 13 270 1 3 5 19 10 35 4 17 28 73 54 125 36 74 61 110 114 162 37 38 74
68 81 68 8 0 16 6 19 13 9 23 188 106 257 120 72 15 190 13 254 -4 22 -6 99
-34 171 -62 146 -57 177 -82 257 -202 59 -88 90 -123 104 -118 14 5 3 70 -21
130 -18 46 -11 74 26 94 30 16 43 -1 45 -59 2 -87 11 -98 84 -103 61 -5 104
25 139 94 17 34 57 103 89 154 31 50 66 109 77 130 23 43 23 43 102 138 182
219 326 322 613 436 86 34 134 59 127 66 -2 2 -28 6 -58 9 -30 3 -55 7 -57 9
-5 4 158 65 174 65 39 0 134 66 134 93 0 14 16 25 50 34 8 2 63 7 122 10 232
12 450 -69 620 -230 61 -58 88 -110 88 -169 0 -42 -4 -50 -34 -73 -26 -19 -33
-32 -31 -53 3 -33 32 -119 49 -147 10 -16 47 -106 52 -125 0 -3 4 -14 8 -25 4
-11 12 -31 16 -45 4 -14 11 -34 16 -45 4 -11 9 -29 11 -40 2 -11 7 -31 13 -45
26 -71 45 -232 29 -261 -4 -9 -11 -38 -14 -65 -4 -27 -11 -68 -16 -92 -5 -23
-12 -59 -15 -80 -16 -100 -123 -364 -197 -487 -31 -51 -73 -110 -79 -113 -5
-2 -8 -8 -8 -13 0 -5 -16 -34 -36 -64 -33 -50 -43 -84 -19 -67 44 30 258 312
238 312 -4 0 -3 4 2 8 27 18 141 321 160 425 4 20 11 40 16 43 5 3 7 -1 4 -8
-2 -7 -6 -41 -9 -76 -4 -35 -13 -95 -22 -133 -8 -38 -16 -72 -16 -76 -2 -17
-67 -192 -92 -245 -87 -189 -180 -305 -301 -373 -86 -48 -260 -223 -338 -338
-16 -23 -32 -43 -38 -45 -5 -2 -9 -10 -9 -17 0 -7 -35 -49 -77 -92 -66 -66
-132 -115 -337 -253 -24 -16 -68 -51 -144 -114 -80 -67 -246 -241 -267 -279
-11 -20 -23 -37 -27 -37 -5 0 -8 -9 -8 -20 0 -11 -4 -20 -10 -20 -5 0 -10 -7
-10 -15 0 -19 6 -19 29 2 10 10 30 27 42 39 13 11 46 40 74 65 52 47 43 31
-40 -68 -27 -32 -61 -74 -75 -93 -14 -18 -38 -49 -54 -69 -61 -77 -200 -298
-265 -421 -39 -74 -87 -190 -96 -230 -2 -8 -4 -15 -5 -15 -3 0 -9 -37 -14 -83
-4 -36 -2 -41 9 -32 8 6 24 33 35 58 104 227 176 358 219 396 22 20 22 13 2
-47 -7 -21 -11 -41 -8 -44 8 -8 88 85 140 163 15 22 36 50 47 62 11 12 20 26
20 32 0 5 4 10 8 10 4 0 15 12 24 28 9 15 25 36 35 47 10 12 42 50 72 85 74
89 224 233 285 275 28 19 62 43 76 54 13 11 27 18 31 16 3 -3 -1 -31 -10 -64
-30 -116 12 -84 95 72 46 89 117 177 140 177 7 0 14 4 16 8 2 4 46 36 98 72
52 35 110 74 129 87 35 24 31 27 -32 23 -35 -2 -38 0 -29 17 15 26 115 122
202 193 41 34 84 69 95 78 11 9 40 33 65 52 25 19 47 37 50 40 3 3 37 30 75
61 154 123 297 291 409 481 119 204 162 331 191 568 2 19 7 55 10 80 3 25 8
65 11 90 6 48 10 76 20 125 21 109 20 352 -1 545 -2 14 -4 25 -5 25 -1 0 -3
13 -5 28 -2 16 -11 61 -20 99 -9 39 -13 73 -10 76 3 3 6 3 8 1 31 -53 72 -157
82 -209 10 -56 17 -102 19 -142 2 -25 5 -49 8 -54 7 -13 2 -340 -7 -414 -4
-36 -14 -101 -21 -145 -8 -44 -17 -93 -20 -110 -13 -76 -58 -218 -105 -330 -7
-16 -12 -33 -11 -37 1 -5 -2 -8 -8 -8 -5 0 -10 -4 -10 -10 0 -11 -80 -175
-109 -225 -66 -113 -81 -144 -71 -150 6 -4 22 1 36 9 26 18 181 172 227 228
40 48 137 194 137 207 0 6 5 11 11 11 5 0 8 4 4 9 -3 5 -1 12 5 16 7 5 48 81
55 105 1 3 8 21 17 41 9 20 19 47 22 60 4 13 11 33 16 44 23 53 64 231 77 336
9 76 9 333 0 404 -23 170 -58 289 -129 440 -33 71 -101 185 -111 185 -13 0 -4
-37 53 -225 12 -38 23 -79 26 -90 15 -68 16 -85 5 -85 -7 0 -10 4 -6 9 3 5 1
12 -4 15 -5 3 -12 18 -15 33 -19 79 -162 360 -188 371 -5 2 -8 8 -8 14 0 15
-118 155 -190 224 -77 74 -134 118 -250 195 -47 31 -99 69 -116 85 -31 29
-167 87 -234 100 -39 7 -466 15 -473 8z m127 -309 c63 -4 66 -4 66 -16 0 -8
-99 -8 -120 1 -6 3 -21 6 -40 9 -9 2 -4 6 10 10 14 5 29 6 34 3 4 -2 27 -6 50
-7z m-251 -22 c-7 -2 -19 -2 -25 0 -7 3 -2 5 12 5 14 0 19 -2 13 -5z m-179
-40 c-26 -20 -253 -129 -284 -138 -24 -6 -24 -5 7 23 47 45 164 110 225 126
59 15 81 10 52 -11z m1172 -396 c64 -95 117 -206 130 -274 2 -12 17 -59 32
-105 25 -77 27 -89 19 -166 -10 -88 -17 -93 -36 -27 -7 22 -16 49 -21 60 -60
148 -85 205 -92 205 -4 0 -8 7 -8 15 0 9 -25 54 -55 102 -30 48 -53 89 -50 91
2 3 16 -3 29 -12 34 -22 66 -21 66 3 0 26 -76 168 -116 218 -19 23 -34 45 -34
50 1 14 88 -88 136 -160z m-1786 132 c0 -10 -59 -99 -173 -259 -52 -74 -131
-160 -147 -160 -17 0 -12 17 32 101 47 89 139 209 216 282 50 46 72 57 72 36z
m-1214 -470 c8 -14 -10 -11 -32 6 -18 13 -18 14 4 8 12 -3 25 -9 28 -14z
m3658 -162 c7 -46 -3 -97 -14 -76 -8 14 -13 63 -11 109 1 35 18 13 25 -33z
m-4354 -22 c0 -2 -19 -17 -42 -34 -82 -57 -166 -148 -254 -273 -32 -46 -70
-96 -85 -112 -32 -34 -65 -118 -75 -191 -10 -68 -12 -302 -3 -343 12 -56 -7
-44 -30 18 -34 94 -37 170 -11 291 13 57 31 129 42 159 10 30 19 57 20 60 7
39 61 147 103 206 45 62 148 142 231 179 22 10 53 23 69 31 34 15 35 16 35 9z
m-220 -1606 c99 -86 162 -146 176 -167 l15 -23 -30 15 c-34 18 -61 21 -61 6 0
-18 61 -79 117 -116 73 -48 141 -81 218 -105 64 -19 129 -63 201 -134 43 -42
69 -83 60 -92 -9 -9 -104 35 -198 92 -48 29 -100 57 -116 63 -63 22 -157 96
-180 142 -7 14 -31 45 -53 70 -22 25 -52 63 -67 85 -15 22 -29 42 -32 45 -3 3
-23 32 -44 65 -22 33 -44 66 -49 73 -17 23 8 12 43 -19z m3499 -246 c-15 -18
-124 -123 -175 -170 -17 -15 -49 -44 -70 -63 -22 -19 -64 -55 -94 -79 -51 -41
-50 -39 16 25 96 93 326 304 332 304 2 0 -2 -8 -9 -17z"/>
<path d="M3092 1014 c-29 -20 -89 -110 -141 -210 -43 -85 -53 -117 -26 -90 8
8 15 19 15 24 0 6 3 12 8 14 10 4 100 128 145 199 38 60 37 90 -1 63z"/>
</g>
</svg>
