<?xml version="1.0" standalone="no"?>
<!DOCTYPE svg PUBLIC "-//W3C//DTD SVG 20010904//EN"
 "http://www.w3.org/TR/2001/REC-SVG-20010904/DTD/svg10.dtd">
<svg version="1.0" xmlns="http://www.w3.org/2000/svg"
 width="700.000000pt" height="700.000000pt" viewBox="0 0 700.000000 700.000000"
 preserveAspectRatio="xMidYMid meet">
<metadata>
Created by potrace 1.11, written by Peter Selinger 2001-2013
</metadata>
<g transform="translate(0.000000,700.000000) scale(0.100000,-0.100000)"
fill="#000000" stroke="none">
<path d="M1198 5904 c155 -122 279 -234 318 -286 82 -111 155 -288 215 -518
30 -114 39 -153 105 -470 19 -91 36 -172 38 -180 2 -8 14 -53 26 -100 12 -47
23 -92 25 -100 8 -37 60 -192 86 -260 87 -223 145 -317 287 -465 38 -38 89
-93 116 -122 l47 -51 -238 0 c-131 0 -251 -3 -268 -5 -16 -3 -50 -9 -75 -12
-25 -4 -53 -9 -62 -11 -10 -2 -28 -6 -40 -9 -85 -18 -248 -87 -352 -147 -418
-245 -764 -710 -956 -1287 -37 -112 -73 -240 -84 -301 -3 -14 -10 -50 -16 -80
-13 -63 -14 -70 -40 -210 -11 -58 -22 -127 -26 -155 -3 -27 -9 -54 -12 -60 -5
-9 44 34 163 146 121 114 176 154 282 208 55 28 183 72 253 87 67 14 240 45
280 50 71 9 167 20 268 29 31 3 77 8 102 11 25 2 68 7 95 10 28 3 66 7 85 9
19 2 60 7 90 10 225 23 526 92 660 152 91 40 181 87 191 99 6 8 15 14 20 14
22 0 160 131 216 205 25 33 85 139 132 235 123 247 201 355 331 455 97 75 257
151 355 168 54 10 90 18 105 22 45 14 155 22 402 30 288 9 402 29 536 91 200
92 422 301 767 724 38 47 72 87 75 90 3 3 24 28 45 55 22 28 42 52 45 55 3 3
43 50 89 105 111 134 270 287 356 345 120 81 187 102 367 115 81 6 108 12 108
25 0 22 -219 125 -475 224 -288 110 -565 184 -805 214 -68 8 -401 9 -455 0
-292 -45 -512 -143 -740 -329 -38 -31 -176 -163 -305 -293 -129 -130 -238
-236 -242 -236 -4 0 -10 10 -14 23 -13 44 -166 473 -191 537 -123 317 -282
533 -553 753 -131 107 -387 234 -580 288 -84 23 -299 65 -375 74 -32 4 -62 8
-65 10 -5 3 -110 14 -195 21 -91 7 -249 14 -395 19 l-155 5 33 -26z"/>
</g>
</svg>
