<?xml version="1.0" encoding="UTF-8" standalone="no"?>
<!-- Created with Inkscape (http://www.inkscape.org/) -->

<svg
   xmlns:dc="http://purl.org/dc/elements/1.1/"
   xmlns:cc="http://creativecommons.org/ns#"
   xmlns:rdf="http://www.w3.org/1999/02/22-rdf-syntax-ns#"
   xmlns:svg="http://www.w3.org/2000/svg"
   xmlns="http://www.w3.org/2000/svg"
   xmlns:sodipodi="http://sodipodi.sourceforge.net/DTD/sodipodi-0.dtd"
   xmlns:inkscape="http://www.inkscape.org/namespaces/inkscape"
   width="2673.1848"
   height="346.30161"
   viewBox="0 0 2673.1849 346.30161"
   id="svg3460"
   version="1.1"
   inkscape:version="0.91 r13725"
   sodipodi:docname="drawing.svg">
  <defs
     id="defs3462" />
  <sodipodi:namedview
     id="base"
     pagecolor="#ffffff"
     bordercolor="#666666"
     borderopacity="1.0"
     inkscape:pageopacity="0.0"
     inkscape:pageshadow="2"
     inkscape:zoom="0.49497475"
     inkscape:cx="1398.6953"
     inkscape:cy="340.2351"
     inkscape:document-units="px"
     inkscape:current-layer="layer1"
     showgrid="false"
     units="px"
     inkscape:window-width="1879"
     inkscape:window-height="1176"
     inkscape:window-x="41"
     inkscape:window-y="24"
     inkscape:window-maximized="1"
     fit-margin-top="0"
     fit-margin-left="0"
     fit-margin-right="0"
     fit-margin-bottom="0" />
  <metadata
     id="metadata3465">
    <rdf:RDF>
      <cc:Work
         rdf:about="">
        <dc:format>image/svg+xml</dc:format>
        <dc:type
           rdf:resource="http://purl.org/dc/dcmitype/StillImage" />
        <dc:title></dc:title>
      </cc:Work>
    </rdf:RDF>
  </metadata>
  <g
     inkscape:label="Layer 1"
     inkscape:groupmode="layer"
     id="layer1"
     transform="translate(1328.1807,-829.21134)">
    <g
       id="g4440"
       transform="matrix(1.9788166,0,0,-1.9788166,170.67417,3309.1025)"
       style="fill:#000000">
      <path
         id="path4438"
         d="m 161.36468,1252.2667 c -5.27057,-1.2572 -9.18274,-4.7656 -10.98304,-9.8494 l -1.66371,-4.698 -3.74132,3.75 c -4.84214,4.8534 -10.90722,5.3761 -19.90918,1.7161 -3.90388,-1.5873 -4.17514,-1.865 -1.8672,-1.9116 1.97288,-0.04 3.72375,-1.3146 6.5,-4.7327 6.92847,-8.5301 8.0856,-9.3196 13.69579,-9.3441 5.62787,-0.024 8.47029,-1.7177 10.36586,-6.1748 1.74398,-4.1008 5.16289,-5.7475 13.31589,-6.4138 5.53861,-0.4526 7.99632,-1.1337 9.68437,-2.6836 l 2.26215,-2.077 -0.61364,3.4358 c -1.72848,9.6776 -8.25673,16.9357 -15.23285,16.9357 l -3.52643,0 2.1581,2.2972 c 1.38237,1.4714 2.66097,4.9566 3.5571,9.6959 1.00819,5.3318 2.02138,7.9026 3.627,9.2028 l 2.228,1.8041 -3.36079,-0.1024 c -1.84843,-0.056 -4.77167,-0.4389 -6.4961,-0.8502 z"
         style="fill:#000000"
         inkscape:connector-curvature="0" />
      <path
         id="path4436"
         d="m 155.76952,1236.1143 c -1.9956,-5.6125 -2.61844,-6.4345 -5.08993,-6.718 -2.20231,-0.2526 -3.88163,0.6737 -7.70499,4.25 -2.68891,2.5151 -4.23449,4.573 -3.43464,4.573 0.79985,0 3.19762,-1.575 5.32836,-3.5 3.93394,-3.5541 5.86134,-4.5181 4.49874,-2.25 -0.56352,0.938 -0.35109,0.926 0.85103,-0.048 1.38507,-1.1221 1.68642,-0.9135 2.22537,1.5404 0.70426,3.2064 4.4177,9.7295 5.13211,9.0151 0.25729,-0.2573 -0.55543,-3.3455 -1.80605,-6.8627 z"
         style="fill:#000000"
         inkscape:connector-curvature="0" />
      <path
         id="path4434"
         d="m 164.88177,1224.2826 c 3.48594,-1.8657 1.99356,-2.2278 -3.98584,-0.9673 -5.32947,1.1236 -7.89593,2.4029 -7.89593,3.9359 0,0.9342 8.60783,-1.2165 11.88177,-2.9686 z"
         style="fill:#000000"
         inkscape:connector-curvature="0" />
      <path
         id="path4432"
         d="m 369.25,1229.557 c -1.7257,-0.6963 -1.56996,-3.001 0.25,-3.6993 0.93624,-0.3593 1.5,0.01 1.5,0.9763 0,0.8536 0.5625,1.3645 1.25,1.1353 2.55533,-0.8518 1.11508,-3.3181 -3.21189,-5.5 -4.68144,-2.3607 -8.56954,-2.6864 -19.02487,-1.5936 -6.22553,0.6507 -6.25082,0.6659 -2.90887,1.75 1.8542,0.6015 3.48869,1.7686 3.6322,2.5936 0.41546,2.3884 -1.34927,4.3626 -3.24827,3.6339 -1.39311,-0.5346 -1.48258,-0.9359 -0.47848,-2.1457 1.46115,-1.7606 1.16128,-1.8243 -7.16396,-1.5211 -3.10977,0.1132 -6.63415,-0.3186 -7.83195,-0.9597 -1.78449,-0.955 -2.3989,-0.8632 -3.4019,0.5085 -1.39985,1.9144 -5.72327,1.6883 -6.38975,-0.3341 -0.27539,-0.8357 0.245,-1.2017 1.42168,-1 1.12458,0.1928 1.85606,-0.273 1.85606,-1.1818 0,-1.1423 -1.07301,-1.4498 -4.5,-1.2893 -19.0756,0.8933 -18.68484,0.9231 -21.41379,-1.635 -1.42242,-1.3334 -2.58621,-3.0209 -2.58621,-3.75 0,-1.5564 -1.60977,-1.7661 -2.5,-0.3257 -0.33992,0.55 -2.23665,1 -4.21495,1 -3.04639,0 -4.31492,-0.781 -8.28813,-5.1028 -4.88994,-5.3189 -8.49692,-6.3307 -8.49692,-2.3835 0,1.43 0.64357,1.9626 2.29787,1.9017 3.513,-0.1292 2.58946,3.9821 -0.98729,4.3952 -3.4931,0.4033 -6.81058,-2.8793 -6.81058,-6.7392 0,-6.0436 5.24332,-7.6769 13.1408,-4.0934 2.39756,1.0879 5.7092,1.9362 7.3592,1.885 2.64193,-0.082 2.52935,-0.1836 -0.94324,-0.852 -2.39527,-0.461 -4.865,-1.8306 -6.29132,-3.4888 -1.9284,-2.2419 -3.25263,-2.76 -7.4088,-2.8984 -4.33872,-0.1446 -5.47415,-0.6313 -7.95867,-3.412 -1.59388,-1.7838 -2.89797,-4.3613 -2.89797,-5.7276 0,-2.1054 -0.46748,-2.4842 -3.06574,-2.4842 -4.96308,0 -6.52408,-1.4938 -11.84542,-11.3357 -4.80787,-8.8922 -15.10855,-21.1052 -15.8711,-18.8175 -0.70974,2.1292 7.5466,16.7163 13.54562,23.932 3.45556,4.1564 6.5613,8.719 6.90164,10.1391 0.34034,1.4202 1.47819,4.2972 2.52857,6.3935 1.58041,3.1541 2.36181,3.7577 4.53098,3.5 3.17406,-0.3771 4.35058,-2.8114 1.35878,-2.8114 -1.14583,0 -2.08333,-0.45 -2.08333,-1 0,-1.8253 4.89858,-1.058 5.96482,0.9342 1.57031,2.9342 1.2521,5.5203 -1.0374,8.4309 -2.34577,2.9822 -5.43951,3.3654 -8.70491,1.0782 -2.20065,-1.5414 -2.22251,-1.5113 -2.22251,3.0657 0,5.5843 1.38788,8.491 4.05424,8.491 1.61678,0 1.86776,-0.4626 1.3564,-2.5 -0.45843,-1.8266 -0.22718,-2.5 0.85851,-2.5 2.31292,0 4.01632,2.7264 3.35346,5.3675 -1.26084,5.0236 -9.24091,3.6744 -11.05922,-1.8698 -0.54072,-1.6488 -1.08636,-3.1579 -1.21253,-3.3537 -0.12618,-0.1957 -1.94424,1.4429 -4.04014,3.6415 -4.8016,5.0368 -11.68715,7.2181 -22.74222,7.2047 -9.49504,-0.012 -15.26649,-2.2376 -22.87608,-8.8237 -5.67058,-4.9078 -8.37393,-6.4814 -9.71309,-5.6537 -1.85742,1.1479 -0.99364,2.6265 1.13898,1.9496 1.53175,-0.4861 1.99325,-0.2971 1.66667,0.6826 -0.24841,0.7453 -1.53915,1.355 -2.86831,1.355 -2.00983,0 -2.4706,-0.5629 -2.737,-3.3436 -0.60265,-6.2901 6.31719,-10.3535 13.44807,-7.8967 l 3.87226,1.3341 0,-6.7742 c 0,-5.977 0.30865,-7.0828 2.62273,-9.3969 1.84827,-1.8483 3.67423,-2.6227 6.18369,-2.6227 4.38299,0 5.69358,0.7502 5.69358,3.259 0,2.6792 -3.60621,2.5549 -4.3132,-0.1487 -0.42981,-1.6436 -1.04169,-1.9452 -2.86663,-1.4131 -5.21719,1.5213 -7.37735,7.991 -4.65965,13.9557 1.1715,2.5712 3.05207,3.5578 2.58948,1.3585 -0.1375,-0.6537 1.4375,-2.0072 3.5,-3.0078 2.16647,-1.0511 3.76284,-2.555 3.78041,-3.5615 0.0282,-1.6137 0.10815,-1.6085 1.08472,0.071 0.75262,1.2939 0.69319,3.297 -0.20768,7 -1.65921,6.8201 -1.45563,8.6205 1.25632,11.1105 l 2.26199,2.0769 -1.71288,-2.0787 c -1.9982,-2.425 -2.21776,-5.5164 -0.51288,-7.2213 1.72021,-1.7202 2.67968,-1.4797 2.19405,0.55 -1.09026,4.5567 5.86651,10.25 12.52462,10.25 1.89744,0 5.36511,-0.9271 7.70593,-2.0603 3.38311,-1.6377 4.60448,-2.9726 5.95477,-6.5083 1.89148,-4.9528 1.56873,-12.823 -0.73386,-17.8954 -1.32094,-2.9099 -1.35608,-2.8418 -1.92407,3.7318 -0.64486,7.4631 -2.30192,10.1116 -7.77503,12.4269 -4.28288,1.8118 -8.53992,0.8918 -11.13422,-2.4063 -2.58129,-3.2816 -2.53264,-4.5718 0.2964,-7.8608 1.71986,-1.9994 2.85441,-2.5106 4.44885,-2.0046 2.66237,0.845 3.70212,3.8498 2.26278,6.5392 -1.22773,2.2941 -0.4561,2.5342 3.41422,1.0627 3.88942,-1.4787 6.55745,-6.649 6.56182,-12.7159 0.004,-5.635 -1.39869,-7.826 -2.41584,-3.7734 -0.39387,1.5693 -1.97046,3.1596 -4.17408,4.2105 -3.18169,1.5172 -3.81212,1.5365 -6.21054,0.1903 -5.68042,-3.1883 -5.09688,-9.9364 0.85926,-9.9364 3.60369,0 5.13515,3.6565 2.37636,5.6738 -0.99752,0.7294 -1.35611,1.3262 -0.79686,1.3262 0.55924,0 1.99525,-1.0415 3.19113,-2.3145 3.446,-3.6681 2.9003,-8.5739 -1.59576,-14.3457 -5.65855,-7.2642 -7.06037,-9.7128 -11.2753,-19.6952 -2.12365,-5.0295 -3.88222,-8.2302 -3.90791,-7.1126 -0.0257,1.1177 -0.65846,4.3904 -1.40614,7.2728 -1.27944,4.9324 -1.25304,5.207 0.44885,4.6668 1.1091,-0.352 2.64162,0.2594 3.96358,1.5814 2.72507,2.7251 2.12394,6.4547 -2.05796,12.7682 -3.4668,5.2339 -3.51887,5.5121 -1.42362,7.6073 1.91751,1.9176 2.85163,1.9716 4.28233,0.2477 0.80229,-0.9667 0.78137,-1.6411 -0.0776,-2.5 -0.86367,-0.8637 -0.8805,-1.4719 -0.0633,-2.2891 1.57732,-1.5773 3.28713,-0.1995 3.28713,2.6488 0,3.3139 -3.91444,5.8273 -7.15612,4.5948 -4.97401,-1.8911 -6.2416,-6.3623 -4.57312,-16.1307 l 0.76862,-4.5 -2.97723,5.1402 c -2.17387,3.7532 -4.15323,5.7095 -7.33542,7.25 -9.10796,4.4091 -21.32809,1.6915 -26.32113,-5.8535 -8.94035,-13.5098 2.47714,-32.3199 15.52288,-25.5737 6.61736,3.422 5.02223,13.537 -2.13477,13.537 -3.0403,0 -5.07136,-2.1129 -4.20396,-4.3733 0.88369,-2.3028 4.15052,-2.0205 4.92697,0.4259 1.01061,3.1842 3.6626,0.4028 3.28436,-3.4446 -0.58433,-5.9437 -9.08023,-6.6803 -11.66323,-1.0112 -4.18134,9.177 2.02826,16.4032 14.09564,16.4032 7.43883,0 11.62371,-2.5023 15.01652,-8.9789 5.97615,-11.4079 1.44976,-24.5312 -9.19548,-26.6602 -2.32287,-0.4646 -3.18007,-0.1973 -3.69827,1.1531 -0.99498,2.5929 1.01217,4.9927 4.13003,4.9381 l 2.73285,-0.048 -2.22035,1.798 c -4.48929,3.6352 -13.59811,1.4072 -16.40022,-4.0115 -0.78941,-1.5265 -1.94392,-5.6814 -2.56557,-9.2331 -1.66196,-9.4951 -2.89397,-12.7296 -6.34655,-16.6618 -9.44776,-10.7604 -24.82574,-13.957 -39.93977,-8.3021 -20.659,7.7295 -28.21977,30.6291 -15.78187,47.7991 9.71618,13.4128 34.12198,11.9398 43.46873,-2.6236 8.32987,-12.9789 3.47069,-30.0734 -9.42811,-33.1678 -6.17843,-1.4822 -10.87004,-0.1393 -14.47299,4.1425 -4.17504,4.9618 -4.55951,10.6863 -0.9595,14.2863 2.11907,2.119 3.42707,1.9765 3.42707,-0.3734 0,-1.7828 3.3813,-5.0567 5.22251,-5.0567 1.84113,0 4.77749,4.2343 4.77749,6.8892 0,9.5142 -12.2816,10.0612 -18.107,0.8065 -2.33233,-3.7054 -2.07088,-10.5173 0.60207,-15.6862 4.48881,-8.6804 20.01649,-10.421 29.37377,-3.2928 7.9136,6.0285 9.29894,18.9167 3.3905,31.5428 -4.83866,10.34 -12.53507,14.7589 -25.63507,14.7185 -4.91921,-0.015 -8.47104,-0.6331 -11.47552,-1.9964 -2.39319,-1.086 -4.7197,-1.7468 -5.17002,-1.4685 -0.45032,0.2783 -2.01307,-0.9608 -3.47276,-2.7535 l -2.654,-3.2596 1.47049,3 c 0.80877,1.65 4.71745,6.6 8.68595,11 12.45543,13.8097 16.02084,25.6109 10.92064,36.1466 -4.69954,9.7079 -16.9198,11.9068 -23.39632,4.2099 -4.66041,-5.5386 -2.58688,-14.6935 3.80584,-16.8032 5.81809,-1.9202 10.61057,1.2753 10.6947,7.1309 l 0.0333,2.3158 1.95368,-2.3447 c 3.19088,-3.8294 4.36642,-9.8633 3.04896,-15.6499 -1.1469,-5.0374 -3.03443,-7.889 -12.98675,-19.6197 -2.97966,-3.5122 -6.80466,-9.3107 -8.5,-12.8857 -2.70295,-5.6998 -3.08214,-7.561 -3.08005,-15.1177 l 0.002,-8.6178 -2.38779,3.6178 c -3.43177,5.1993 -9.13955,11.0277 -12.61702,12.8835 -3.57411,1.9074 -14.96543,2.1772 -18.17202,0.4305 -4.684303,-2.5518 -5.327983,-4.0019 -5.327983,-12.0037 l 0,-7.6645 2.250003,3.1678 c 5.86129,8.2519 17.7417,10.0617 26.00361,3.9612 1.60677,-1.1864 5.01273,-5.3071 7.5688,-9.1571 6.53085,-9.8369 12.11921,-15.0709 20.25336,-18.9691 13.3808,-6.4126 26.62462,-6.8008 48.8357,-1.4314 9.85376,2.382 14.12738,1.9378 17.0452,-1.7716 2.27366,-2.8905 2.68023,-7.291 0.84333,-9.1279 -1.45314,-1.4532 -4.8,-1.5926 -4.8,-0.2 0,0.55 0.708,1 1.57332,1 2.3536,0 1.29157,3.4447 -1.17104,3.7982 -5.23165,0.7512 -5.57918,-6.6211 -0.43745,-9.28 9.69802,-5.0151 18.92337,3.0594 15.92061,13.9345 -1.26177,4.5698 -5.85414,9.5473 -8.80852,9.5473 -1.1423,0 -2.07692,0.45 -2.07692,1 0,0.55 1.59545,1 3.54545,1 4.1841,0 8.45455,3.6529 8.45455,7.232 0,4.7752 5.80493,10.0047 8.56392,7.7149 2.0637,-1.7127 1.77217,-2.6176 -0.81392,-2.5263 -1.75451,0.062 -2.25,-0.4712 -2.25,-2.4206 0,-1.97 0.57019,-2.5659 2.68942,-2.8106 3.84573,-0.4441 6.81447,2.859 6.79527,7.5606 -0.0185,4.524 -0.59695,5.4951 -4.48469,7.528 l -3,1.5687 4.5,2.0547 c 5.57928,2.5475 13.30365,2.6965 17.98007,0.347 9.78396,-4.9156 10.93213,-19.1397 1.92109,-23.7995 -4.15473,-2.1485 -5.70431,-1.87 -5.16924,0.9291 0.48878,2.5569 -2.69718,5.622 -5.84364,5.622 -3.10074,0 -5.99394,-3.3689 -6.56785,-7.6477 -0.49303,-3.6758 -0.18156,-4.5332 2.84734,-7.8383 4.23908,-4.6257 9.9709,-5.6251 17.64375,-3.0766 10.60505,3.5224 15.89127,13.2961 13.21813,24.439 -2.55267,10.6407 -11.27578,16.5885 -23.41318,15.9642 -3.64137,-0.1874 -6.61972,-0.2397 -6.61857,-0.1163 0.011,1.1723 6.90669,3.2722 10.70244,3.2592 4.90045,-0.017 8.03607,-1.4345 16.26436,-7.3538 10.92441,-7.8588 23.06013,-1.6094 23.02056,11.8547 -0.0202,6.8852 -1.74387,10.0156 -5.51479,10.0156 -2.3038,0 -2.97047,-0.4489 -2.97047,-2 0,-1.4309 0.6402,-1.9774 2.25,-1.9206 3.42714,0.1209 2.83723,-3.2894 -1.23299,-7.1281 -4.73838,-4.4689 -7.63419,-4.8723 -17.86032,-2.4879 -9.7787,2.2801 -13.32108,2.4949 -17.14874,1.0396 -1.4801,-0.5627 -2.37445,-0.596 -2.05334,-0.076 0.3129,0.5063 2.82759,1.6707 5.58819,2.5877 7.01389,2.3296 10.48915,5.6174 12.97721,12.2772 1.17295,3.1397 2.84304,6.496 3.7113,7.4585 1.98661,2.2023 5.44758,2.3798 4.62543,0.2373 -0.75757,-1.9742 1.38765,-4.5226 3.21637,-3.8208 2.38666,0.9158 1.71948,5.2431 -0.99937,6.4819 -3.52207,1.6048 -7.41057,0.2501 -11.75624,-4.0956 -4.02559,-4.0256 -4.49135,-4.1804 -2.74181,-0.9113 0.94649,1.7685 0.8564,1.8918 -0.75,1.0261 -2.6128,-1.4081 -5.8195,-5.1295 -7.8097,-9.0632 -1.04181,-2.0592 -1.99173,-2.9526 -2.41355,-2.2701 -1.02774,1.6629 -7.59487,-4.112 -10.69845,-9.4079 -1.42672,-2.4344 -2.76971,-4.4263 -2.98442,-4.4263 -0.97543,0 4.01938,10.8223 7.22086,15.6456 6.68384,10.0696 11.7556,13.4921 36.04317,24.3226 6.25601,2.7897 11.18902,7.6514 15.25221,15.0318 l 3.02796,5.5 0.0181,-4.095 c 0.0221,-4.9942 2.32203,-7.405 7.06429,-7.405 2.92886,0 4.43136,1.0855 11.07266,8 6.68857,6.9636 8.13006,8 11.12759,8 3.80933,0 6.80113,-2.5006 6.67464,-5.5788 -0.0434,-1.0567 -0.30592,-1.3587 -0.58333,-0.6712 -0.6421,1.5913 -4.56448,1.6232 -6.13772,0.05 -1.5425,-1.5425 -1.5425,-5.0575 0,-6.6 3.62233,-3.6223 11.8,0.9653 11.8,6.6197 0,6.7508 -7.13457,11.5359 -17.25,11.5696 -3.7125,0.012 -6.75,0.1163 -6.75,0.2311 0,0.8926 10.64975,5.8231 16.25578,7.5259 12.1343,3.6857 25.44819,1.5124 28.77106,-4.6965 1.50157,-2.8057 0.46895,-6.1577 -2.15335,-6.99 -2.64597,-0.8398 -3.8581,0.4097 -1.61516,1.6649 2.50586,1.4023 2.1437,3.735 -0.78722,5.0704 -3.66532,1.67 -7.85891,-1.5871 -8.27445,-6.4267 -0.47182,-5.495 3.14889,-9.1102 9.03493,-9.0212 2.50697,0.038 5.7077,0.8221 7.11275,1.7427 3.0905,2.025 5.05051,7.4359 4.16084,11.4865 -0.67471,3.0719 -5.62595,8.0236 -8.02289,8.0236 -0.75034,0 -1.67989,0.5107 -2.06566,1.1349 -0.50855,0.8228 0.6438,0.9365 4.19098,0.4135 6.62648,-0.977 11.02282,-3.1973 13.96264,-7.0516 2.21146,-2.8994 2.48501,-4.3161 2.73373,-14.1577 0.30172,-11.9385 1.62818,-15.7161 6.89762,-19.6437 3.56848,-2.6598 11.08067,-2.6218 14.6918,0.074 3.21737,2.4021 3.60746,6.7303 0.6066,6.7303 -1.56079,0 -1.95866,-0.6039 -1.81174,-2.75 0.15697,-2.2929 -0.21319,-2.75 -2.22694,-2.75 -3.83886,0 -5.88118,4.0377 -4.94156,9.7696 1.5912,9.7066 1.15776,15.8256 -1.36234,19.2327 l -2.34259,3.1671 2.23687,-1.1971 c 7.00577,-3.7494 13.44901,-12.0988 16.52816,-21.418 l 1.33961,-4.0543 -0.20973,5.3013 c -0.2024,5.1158 -0.15074,5.2285 1.47541,3.2193 2.28349,-2.8213 4.22778,-12.006 3.43551,-16.2291 -0.76919,-4.1002 -3.71161,-7.5253 -7.22155,-8.4062 -3.14688,-0.7898 -5.39698,1.0168 -3.55747,2.8563 0.98886,0.9889 1.43364,0.938 2.18469,-0.25 0.79299,-1.2543 0.94548,-1.2031 0.95836,0.3217 0.0122,1.4429 -0.64238,1.7494 -3.20349,1.5 -6.65882,-0.6482 -7.64835,-9.0945 -1.50436,-12.8406 7.81088,-4.7625 17.09766,0.062 19.30056,10.0273 l 0.77373,3.5 1.24758,-4 c 5.39649,-17.3022 -5.004,-40.5523 -22.7241,-50.7994 -13.38576,-7.7406 -32.76868,-7.6308 -43.6441,0.2473 -8.04752,5.8296 -12.9143,19.4158 -10.32207,28.8152 2.30375,8.3533 10.02503,14.0002 17.18524,12.5681 l 2.8601,-0.572 -2.97689,-2.7808 c -4.17505,-3.9001 -4.13536,-8.8259 0.0998,-12.3895 4.60914,-3.8784 10.13116,-3.1845 14.15103,1.7781 2.18545,2.698 2.32414,10.665 0.25531,14.6657 -4.31725,8.3487 -20.51024,8.7847 -28.13984,0.7578 -3.77644,-3.9731 -6.92239,-10.0303 -7.89095,-15.1932 l -0.7147,-3.8097 -2.61879,4.8218 c -3.64494,6.7113 -10.23784,10.6918 -18.47461,11.1542 -4.84011,0.2717 -6.82367,-0.082 -9.34563,-1.6651 -4.56205,-2.8644 -6.63737,-7.3535 -5.84432,-12.6419 0.91305,-6.0883 4.53975,-9.4566 10.18217,-9.4566 5.6569,0 8.36364,2.5389 8.36364,7.845 0,4.6822 -2.38039,7.155 -6.88776,7.155 -4.39349,0 -3.14165,1.5033 2.41745,2.9031 9.83794,2.4773 16.19354,-2.2203 20.88557,-15.437 6.85023,-19.2961 15.14889,-26.1279 33.02104,-27.1845 19.24854,-1.1379 35.62811,7.4585 45.5116,23.8858 2.93993,4.8864 3.34099,4.7244 1.65281,-0.6674 -0.34441,-1.1 0.31417,-0.047 1.4635,2.3397 1.14934,2.3868 2.27855,4.1509 2.50935,3.9201 0.64896,-0.649 -2.55854,-10.7972 -4.80899,-15.2152 -5.03876,-9.892 -20.40905,-21.8001 -36.93339,-28.6142 -4.00257,-1.6506 -8.302,-3.9636 -9.55429,-5.14 -2.96196,-2.7826 -2.98785,-7.179 -0.0544,-9.2337 4.86138,-3.405 11.77751,-0.5022 11.77751,4.9433 0,1.375 -0.9,3.4 -2,4.5 -1.1,1.1 -2,2.225 -2,2.5 0,0.275 4.93963,0.5 10.97695,0.5 10.71578,0 11.01745,0.062 12.67928,2.5981 1.36982,2.0906 1.47033,2.9696 0.51458,4.5 -1.0533,1.6866 -0.8926,1.9019 1.41959,1.9019 7.19321,0 13.4096,6.4434 13.4096,13.8994 0,2.8104 0.49607,4.3537 1.52651,4.7491 2.6748,1.0264 6.30722,8.6249 7.54372,15.7803 2.12816,12.3152 -0.06,27.7388 -5.43656,38.3212 -1.46705,2.8875 -2.45752,5.25 -2.20104,5.25 0.25647,0 2.52262,-2.8817 5.03588,-6.4037 5.81317,-8.1464 9.8397,-17.0374 12.53954,-27.6886 2.42997,-9.5865 4.06487,-12.6047 7.54425,-13.9276 1.86437,-0.7088 2.4477,-1.6633 2.4477,-4.005 0,-5.9485 4.06622,-10.9751 8.87818,-10.9751 1.49256,0 2.70924,-1.5589 4.72843,-6.0582 4.82011,-10.7407 15.09517,-17.3356 29.03786,-18.6375 7.38884,-0.69 11.70256,1.2449 11.1668,5.0089 -0.43879,3.0827 -3.30077,2.8153 -3.35304,-0.3132 -0.0392,-2.3439 -0.33727,-2.4847 -4.77291,-2.2553 -6.73639,0.3486 -14.10812,4.4655 -21.74769,12.1457 -8.20214,8.2457 -12.37635,14.4131 -23.42457,34.6096 -4.81392,8.8 -10.3496,18.25 -12.3015,21 -1.95191,2.75 -2.79801,4.3824 -1.88024,3.6275 2.41128,-1.9832 2.05171,-0.1641 -0.50563,2.558 -1.19588,1.273 -1.69355,2.3145 -1.10595,2.3145 0.98023,0 10.06908,-9.7609 18.15736,-19.5 7.93915,-9.5595 17.81481,-18.6914 22.90919,-21.1839 18.05394,-8.833 34.48882,1.21 32.96879,20.1464 -1.02866,12.8148 -7.82808,19.5375 -19.7607,19.5375 -7.99567,0 -10.99438,-2.5997 -10.99438,-9.5315 0,-6.2199 3.95651,-10.4685 9.74876,-10.4685 5.5362,0 8.6139,3.4 8.08623,8.933 -0.43332,4.5439 -0.21989,4.7253 2.94822,2.5063 6.56642,-4.5993 7.03091,-16.6331 0.90018,-23.3212 -5.13814,-5.6054 -13.7534,-7.4136 -21.80766,-4.5771 -7.57241,2.6668 -11.61522,6.3151 -35.41411,31.959 -12.76076,13.75 -26.09705,27.7655 -29.63621,31.1456 -7.08704,6.7684 -16.39852,13.1582 -23.3266,16.0074 -5.13407,2.1113 -5.71843,3.2801 -1.74881,3.4978 9.07641,0.4977 14.64726,-2.2301 20.63157,-10.1023 5.21522,-6.8604 9.44332,-9.3879 15.85642,-9.4787 4.02987,-0.057 5.28752,0.3637 6.84914,2.291 3.38012,4.1716 2.03399,10.1392 -2.28713,10.1392 -2.55026,0 -2.37889,-4.0359 0.2,-4.7103 3.69423,-0.966 1.58741,-5.2897 -2.57756,-5.2897 -2.96815,0 -4.25062,1.8224 -5.34785,7.5992 -1.79696,9.4608 -4.2545,12.9067 -11.30612,15.853 -5.66715,2.3679 -9.98406,1.944 -18.82133,-1.8485 -1.26594,-0.5433 -1.48018,-0.044 -1.1595,2.703 0.58585,5.0182 -2.97894,7.8705 -7.53764,6.031 z"
         style="fill:#000000"
         inkscape:connector-curvature="0" />
      <path
         id="path4430"
         d="m 125.34375,1226.1751 c -6.18701,-1.22 -11.43976,-4.2514 -16.06931,-9.2739 -4.79327,-5.2001 -6.55344,-10.1568 -6.09825,-17.1729 0.25668,-3.9563 0.71627,-5.0656 2.21682,-5.3509 1.57931,-0.3002 1.76764,0.03 1.13648,1.991 -3.86923,12.0234 1.18075,19.876 15.12375,23.517 10.70569,2.7957 20.76083,0 27.67194,-7.6829 7.02265,-7.8109 9.43569,-18.7409 6.17672,-27.9778 -2.37991,-6.7454 -9.87784,-16.3507 -18.02218,-23.0874 -7.89588,-6.5313 -9.41231,-8.8609 -2.84696,-4.3737 2.12698,1.4537 5.91253,3.6868 8.41234,4.9624 7.11815,3.6323 14.52512,10.9059 17.608,17.2909 2.32357,4.8124 2.76058,7.0318 2.80009,14.2202 0.0422,7.6826 -0.28006,9.1821 -3.28703,15.293 -2.39899,4.8754 -4.73655,7.884 -8.33614,10.7293 -7.03292,5.5592 -18.36301,8.5176 -26.48627,6.9158 z"
         style="fill:#000000"
         inkscape:connector-curvature="0" />
      <path
         id="path4428"
         d="m 496.08137,1216.6308 c -7.09274,-1.9069 -11.61773,-4.7888 -15.12809,-9.6347 -5.46652,-7.5463 -4.79202,-18.0749 1.39981,-21.8505 10.6126,-6.4711 22.21008,5.6644 13.62125,14.2532 -2.55695,2.5569 -3.64135,2.9669 -7,2.6466 -2.18589,-0.2084 -3.97434,-0.1209 -3.97434,0.1945 0,0.3154 1.6875,2.2176 3.75,4.2271 5.5576,5.4147 12.14562,7.9406 22.20438,8.5131 10.29578,0.5861 17.89602,-0.8463 26.0133,-4.9025 20.70561,-10.3467 29.40705,-37.3336 20.18507,-62.6024 -6.91198,-18.9393 -17.57938,-28.4875 -38.21525,-34.206 -13.9031,-3.8528 -30.83579,-2.0291 -45.6875,4.9204 -5.88076,2.7518 -8.37761,4.6439 -4.5,3.4101 0.9625,-0.3063 -0.725,0.8246 -3.75,2.513 -3.31139,1.8483 -9.42794,7.156 -15.37095,13.3382 -8.97332,9.3346 -9.42801,9.6802 -5,3.8004 20.0774,-26.66 44.80339,-40.454 72.37095,-40.374 16.28759,0.047 30.50637,5.1679 40.24655,14.494 5.21526,4.9936 5.22032,5.0043 0.6967,1.477 -6.29587,-4.9093 -16.23666,-9.3749 -25.03731,-11.2471 -9.8986,-2.1059 -27.56419,-1.3629 -37.84424,1.5916 -9.24877,2.6582 -12.31455,4.3144 -6.0617,3.2747 2.475,-0.4115 9.45,-0.7127 15.5,-0.6693 9.50547,0.068 12.16086,0.4839 19.54417,3.0599 15.2728,5.3286 24.6931,13.5546 31.71903,27.6975 4.96232,9.989 6.49806,17.6043 5.98211,29.6637 -0.55553,12.9845 -2.54298,19.1103 -9.20735,28.3794 -6.03654,8.3959 -14.60651,14.6348 -24.15315,17.5834 -7.97424,2.463 -23.98425,2.6854 -32.30344,0.4487 z"
         style="fill:#000000"
         inkscape:connector-curvature="0" />
      <path
         id="path4426"
         d="m 78.597327,1205.6009 c 0.96935,-8.829 3.868703,-13.4517 9.960073,-15.8802 l 5.01988,-2.0014 -2.3464,-2 c -1.29052,-1.1 -3.22415,-4.6687 -4.29696,-7.9305 -2.1025,-6.3924 -4.30649,-9.5094 -6.83891,-9.6719 -0.877253,-0.056 -0.02,-0.4998 1.90499,-0.9856 4.09979,-1.0346 10.34183,-0.2684 14.29422,1.7548 3.32002,1.6994 6.67695,6.8369 6.75189,10.3332 0.0459,2.1395 0.34951,1.8898 2.10612,-1.7317 3.51821,-7.2535 10.83705,-9.8205 21.76718,-7.6344 l 3.16942,0.6339 -2.94606,1.7916 c -1.65466,1.0062 -4.38024,4.4823 -6.21786,7.9301 -3.58077,6.7182 -6.72905,9.0105 -12.37525,9.0105 -1.95231,0 -3.54966,0.45 -3.54966,1 0,0.55 -0.675,1 -1.5,1 -0.88778,0 -1.50153,0.9183 -1.50374,2.25 -0.005,3.1875 -3.57013,8.6375 -6.33809,9.6899 -1.28751,0.4895 -4.5445,1.2204 -7.23777,1.6243 -3.56585,0.5347 -5.65411,1.545 -7.68284,3.7167 l -2.785983,2.9824 0.64575,-5.8817 z"
         style="fill:#000000"
         inkscape:connector-curvature="0" />
      <path
         id="path4424"
         d="m 97.25,1193.7744 c 3.35894,-1.3015 5.3232,-4.5551 2.75,-4.5551 -0.55,0 -1,0.4012 -1,0.8916 0,0.4904 -1.21005,1.1953 -2.68901,1.5665 -3.10746,0.7799 -8.31099,4.2632 -8.31099,5.5635 0,0.4869 1.2375,0.2331 2.75,-0.5641 1.5125,-0.7972 4.4375,-2.1033 6.5,-2.9024 z"
         style="fill:#000000"
         inkscape:connector-curvature="0" />
      <path
         id="path4422"
         d="m 106.13444,1186.6797 c 0.89895,-0.5282 3.27111,-3.1145 5.27148,-5.7472 l 3.63703,-4.7868 -2.9928,1.5476 c -1.64604,0.8512 -4.1307,3.2223 -5.52147,5.269 -1.98486,2.921 -2.5438,3.295 -2.59897,1.7391 -0.0696,-1.9627 -0.0779,-1.9625 -0.85142,0.018 -0.69308,1.7746 -1.01132,1.5491 -2.8233,-2 C 98.47366,1179.2303 94,1174.0064 94,1175.4155 c 0,0.7499 5.03131,10.1075 6.20032,11.5317 1.09905,1.3391 3.37483,1.2365 5.93412,-0.2674 z"
         style="fill:#000000"
         inkscape:connector-curvature="0" />
      <path
         id="path4420"
         d="m 506.10791,1204.0252 c -4.21838,-0.9411 -4.29867,-1.0264 -2.03001,-2.1574 1.29914,-0.6477 3.36002,-2.7461 4.57973,-4.6631 4.71219,-7.406 5.52237,-8 12.34237,-9.0485 8.2014,-1.2609 13.58538,-4.8471 17.22664,-11.4743 3.08796,-5.6202 3.78918,-5.3537 0.86099,0.3272 -2.954,5.731 -10.35083,11.9829 -16.08763,13.5974 -2.71361,0.7637 -8.98132,7.6128 -6.96657,7.6128 0.67673,0 2.82274,-1.6875 4.76892,-3.75 l 3.53851,-3.75 -0.62768,3.874 c -0.74045,4.57 -3.00203,7.3894 -7.43106,9.264 -3.6146,1.5299 -4.03808,1.5369 -10.17421,0.1679 z"
         style="fill:#000000"
         inkscape:connector-curvature="0" />
      <path
         id="path4418"
         d="m 541.15789,1167.2193 c 0,-1.375 0.22698,-1.9375 0.50439,-1.25 0.27741,0.6875 0.27741,1.8125 0,2.5 -0.27741,0.6875 -0.50439,0.125 -0.50439,-1.25 z"
         style="fill:#000000"
         inkscape:connector-curvature="0" />
      <path
         id="path4416"
         d="m 582.5,1161.8168 c -1.65,-0.7284 -3.84072,-2.2675 -4.86826,-3.4203 -2.18959,-2.4566 -3.412,-10.577 -1.7471,-11.6059 0.61345,-0.3792 1.11704,-0.1003 1.1191,0.6197 0.005,1.7191 3.95753,8.1811 4.60692,7.5317 0.27659,-0.2766 -0.47221,-2.5774 -1.66401,-5.1128 -1.45214,-3.0893 -2.79029,-4.6099 -4.05678,-4.6099 -1.03943,0 -1.88987,-0.675 -1.88987,-1.5 0,-0.825 0.675,-1.5 1.5,-1.5 0.825,0 1.5,0.3937 1.5,0.875 0,0.4812 1.26535,1.128 2.81188,1.4374 4.57484,0.9149 7.14701,3.783 8.68812,9.6876 0.79665,3.0523 2.38925,6.2788 3.57854,7.25 2.11371,1.726 2.08337,1.7494 -2.21776,1.7108 -2.39843,-0.022 -5.71078,-0.635 -7.36078,-1.3633 z"
         style="fill:#000000"
         inkscape:connector-curvature="0" />
      <path
         id="path4414"
         d="m 541.16388,1158.2193 c -0.48372,-9.1254 -6.10107,-20.7968 -13.20941,-27.4458 -7.48456,-7.001 -16.7238,-10.9851 -29.95447,-12.9168 -1.375,-0.2008 -0.45704,-0.4263 2.0399,-0.5012 5.41511,-0.1625 14.45738,2.0565 20.09001,4.9301 12.55125,6.4031 22.7011,22.9141 21.60423,35.144 -0.35016,3.9043 -0.40139,3.9753 -0.57026,0.7897 z"
         style="fill:#000000"
         inkscape:connector-curvature="0" />
      <path
         id="path4412"
         d="m 486.26903,1117.5263 c 0.97297,-0.2535 2.32297,-0.2369 3,0.037 0.67703,0.2739 -0.11903,0.4814 -1.76903,0.461 -1.65,-0.02 -2.20394,-0.2445 -1.23097,-0.4981 z"
         style="fill:#000000"
         inkscape:connector-curvature="0" />
      <path
         id="path4410"
         d="m 393.94428,1113.6403 c -16.18127,-12.1162 -43.78561,-15.2024 -58.47201,-6.5372 -3.81635,2.2517 -6.47227,1.8897 -6.47227,-0.8822 0,-2.3082 -6.61133,-5.0016 -12.27684,-5.0016 -2.33,0 -5.69589,-0.4186 -7.47976,-0.9302 -4.42304,-1.2685 -4.0802,0.092 0.70035,2.7784 2.39025,1.3434 6.57335,2.4621 10.61926,2.8399 6.61056,0.6173 6.65302,0.6403 4.36401,2.3669 -2.80795,2.1181 -8.6312,3.947 -12.54304,3.9394 -11.84017,-0.023 -19.81618,-8.0185 -24.75393,-24.8149 l -1.56409,-5.3204 2.81472,3.0132 c 3.48251,3.728 4.74626,4.0103 19.48353,4.3523 l 11.86422,0.2754 4.38578,4.8467 c 2.41219,2.6657 4.38579,5.7618 4.38579,6.8801 0,1.8184 0.44926,1.9707 4.25,1.441 2.3375,-0.3258 6.71057,-1.2843 9.71793,-2.1301 11.60379,-3.2633 27.31267,-1.4311 39.47757,4.6046 6.51029,3.2301 17.22266,10.8577 15.24878,10.8577 -0.16815,0 -1.85565,-1.1606 -3.75,-2.579 z"
         style="fill:#000000"
         inkscape:connector-curvature="0" />
    </g>
    <g
       transform="matrix(-1.9788166,0,0,-1.9788166,-153.85087,3309.1025)"
       id="g4457"
       style="fill:#000000">
      <path
         inkscape:connector-curvature="0"
         style="fill:#000000"
         d="m 161.36468,1252.2667 c -5.27057,-1.2572 -9.18274,-4.7656 -10.98304,-9.8494 l -1.66371,-4.698 -3.74132,3.75 c -4.84214,4.8534 -10.90722,5.3761 -19.90918,1.7161 -3.90388,-1.5873 -4.17514,-1.865 -1.8672,-1.9116 1.97288,-0.04 3.72375,-1.3146 6.5,-4.7327 6.92847,-8.5301 8.0856,-9.3196 13.69579,-9.3441 5.62787,-0.024 8.47029,-1.7177 10.36586,-6.1748 1.74398,-4.1008 5.16289,-5.7475 13.31589,-6.4138 5.53861,-0.4526 7.99632,-1.1337 9.68437,-2.6836 l 2.26215,-2.077 -0.61364,3.4358 c -1.72848,9.6776 -8.25673,16.9357 -15.23285,16.9357 l -3.52643,0 2.1581,2.2972 c 1.38237,1.4714 2.66097,4.9566 3.5571,9.6959 1.00819,5.3318 2.02138,7.9026 3.627,9.2028 l 2.228,1.8041 -3.36079,-0.1024 c -1.84843,-0.056 -4.77167,-0.4389 -6.4961,-0.8502 z"
         id="path4459" />
      <path
         inkscape:connector-curvature="0"
         style="fill:#000000"
         d="m 155.76952,1236.1143 c -1.9956,-5.6125 -2.61844,-6.4345 -5.08993,-6.718 -2.20231,-0.2526 -3.88163,0.6737 -7.70499,4.25 -2.68891,2.5151 -4.23449,4.573 -3.43464,4.573 0.79985,0 3.19762,-1.575 5.32836,-3.5 3.93394,-3.5541 5.86134,-4.5181 4.49874,-2.25 -0.56352,0.938 -0.35109,0.926 0.85103,-0.048 1.38507,-1.1221 1.68642,-0.9135 2.22537,1.5404 0.70426,3.2064 4.4177,9.7295 5.13211,9.0151 0.25729,-0.2573 -0.55543,-3.3455 -1.80605,-6.8627 z"
         id="path4461" />
      <path
         inkscape:connector-curvature="0"
         style="fill:#000000"
         d="m 164.88177,1224.2826 c 3.48594,-1.8657 1.99356,-2.2278 -3.98584,-0.9673 -5.32947,1.1236 -7.89593,2.4029 -7.89593,3.9359 0,0.9342 8.60783,-1.2165 11.88177,-2.9686 z"
         id="path4463" />
      <path
         inkscape:connector-curvature="0"
         style="fill:#000000"
         d="m 369.25,1229.557 c -1.7257,-0.6963 -1.56996,-3.001 0.25,-3.6993 0.93624,-0.3593 1.5,0.01 1.5,0.9763 0,0.8536 0.5625,1.3645 1.25,1.1353 2.55533,-0.8518 1.11508,-3.3181 -3.21189,-5.5 -4.68144,-2.3607 -8.56954,-2.6864 -19.02487,-1.5936 -6.22553,0.6507 -6.25082,0.6659 -2.90887,1.75 1.8542,0.6015 3.48869,1.7686 3.6322,2.5936 0.41546,2.3884 -1.34927,4.3626 -3.24827,3.6339 -1.39311,-0.5346 -1.48258,-0.9359 -0.47848,-2.1457 1.46115,-1.7606 1.16128,-1.8243 -7.16396,-1.5211 -3.10977,0.1132 -6.63415,-0.3186 -7.83195,-0.9597 -1.78449,-0.955 -2.3989,-0.8632 -3.4019,0.5085 -1.39985,1.9144 -5.72327,1.6883 -6.38975,-0.3341 -0.27539,-0.8357 0.245,-1.2017 1.42168,-1 1.12458,0.1928 1.85606,-0.273 1.85606,-1.1818 0,-1.1423 -1.07301,-1.4498 -4.5,-1.2893 -19.0756,0.8933 -18.68484,0.9231 -21.41379,-1.635 -1.42242,-1.3334 -2.58621,-3.0209 -2.58621,-3.75 0,-1.5564 -1.60977,-1.7661 -2.5,-0.3257 -0.33992,0.55 -2.23665,1 -4.21495,1 -3.04639,0 -4.31492,-0.781 -8.28813,-5.1028 -4.88994,-5.3189 -8.49692,-6.3307 -8.49692,-2.3835 0,1.43 0.64357,1.9626 2.29787,1.9017 3.513,-0.1292 2.58946,3.9821 -0.98729,4.3952 -3.4931,0.4033 -6.81058,-2.8793 -6.81058,-6.7392 0,-6.0436 5.24332,-7.6769 13.1408,-4.0934 2.39756,1.0879 5.7092,1.9362 7.3592,1.885 2.64193,-0.082 2.52935,-0.1836 -0.94324,-0.852 -2.39527,-0.461 -4.865,-1.8306 -6.29132,-3.4888 -1.9284,-2.2419 -3.25263,-2.76 -7.4088,-2.8984 -4.33872,-0.1446 -5.47415,-0.6313 -7.95867,-3.412 -1.59388,-1.7838 -2.89797,-4.3613 -2.89797,-5.7276 0,-2.1054 -0.46748,-2.4842 -3.06574,-2.4842 -4.96308,0 -6.52408,-1.4938 -11.84542,-11.3357 -4.80787,-8.8922 -15.10855,-21.1052 -15.8711,-18.8175 -0.70974,2.1292 7.5466,16.7163 13.54562,23.932 3.45556,4.1564 6.5613,8.719 6.90164,10.1391 0.34034,1.4202 1.47819,4.2972 2.52857,6.3935 1.58041,3.1541 2.36181,3.7577 4.53098,3.5 3.17406,-0.3771 4.35058,-2.8114 1.35878,-2.8114 -1.14583,0 -2.08333,-0.45 -2.08333,-1 0,-1.8253 4.89858,-1.058 5.96482,0.9342 1.57031,2.9342 1.2521,5.5203 -1.0374,8.4309 -2.34577,2.9822 -5.43951,3.3654 -8.70491,1.0782 -2.20065,-1.5414 -2.22251,-1.5113 -2.22251,3.0657 0,5.5843 1.38788,8.491 4.05424,8.491 1.61678,0 1.86776,-0.4626 1.3564,-2.5 -0.45843,-1.8266 -0.22718,-2.5 0.85851,-2.5 2.31292,0 4.01632,2.7264 3.35346,5.3675 -1.26084,5.0236 -9.24091,3.6744 -11.05922,-1.8698 -0.54072,-1.6488 -1.08636,-3.1579 -1.21253,-3.3537 -0.12618,-0.1957 -1.94424,1.4429 -4.04014,3.6415 -4.8016,5.0368 -11.68715,7.2181 -22.74222,7.2047 -9.49504,-0.012 -15.26649,-2.2376 -22.87608,-8.8237 -5.67058,-4.9078 -8.37393,-6.4814 -9.71309,-5.6537 -1.85742,1.1479 -0.99364,2.6265 1.13898,1.9496 1.53175,-0.4861 1.99325,-0.2971 1.66667,0.6826 -0.24841,0.7453 -1.53915,1.355 -2.86831,1.355 -2.00983,0 -2.4706,-0.5629 -2.737,-3.3436 -0.60265,-6.2901 6.31719,-10.3535 13.44807,-7.8967 l 3.87226,1.3341 0,-6.7742 c 0,-5.977 0.30865,-7.0828 2.62273,-9.3969 1.84827,-1.8483 3.67423,-2.6227 6.18369,-2.6227 4.38299,0 5.69358,0.7502 5.69358,3.259 0,2.6792 -3.60621,2.5549 -4.3132,-0.1487 -0.42981,-1.6436 -1.04169,-1.9452 -2.86663,-1.4131 -5.21719,1.5213 -7.37735,7.991 -4.65965,13.9557 1.1715,2.5712 3.05207,3.5578 2.58948,1.3585 -0.1375,-0.6537 1.4375,-2.0072 3.5,-3.0078 2.16647,-1.0511 3.76284,-2.555 3.78041,-3.5615 0.0282,-1.6137 0.10815,-1.6085 1.08472,0.071 0.75262,1.2939 0.69319,3.297 -0.20768,7 -1.65921,6.8201 -1.45563,8.6205 1.25632,11.1105 l 2.26199,2.0769 -1.71288,-2.0787 c -1.9982,-2.425 -2.21776,-5.5164 -0.51288,-7.2213 1.72021,-1.7202 2.67968,-1.4797 2.19405,0.55 -1.09026,4.5567 5.86651,10.25 12.52462,10.25 1.89744,0 5.36511,-0.9271 7.70593,-2.0603 3.38311,-1.6377 4.60448,-2.9726 5.95477,-6.5083 1.89148,-4.9528 1.56873,-12.823 -0.73386,-17.8954 -1.32094,-2.9099 -1.35608,-2.8418 -1.92407,3.7318 -0.64486,7.4631 -2.30192,10.1116 -7.77503,12.4269 -4.28288,1.8118 -8.53992,0.8918 -11.13422,-2.4063 -2.58129,-3.2816 -2.53264,-4.5718 0.2964,-7.8608 1.71986,-1.9994 2.85441,-2.5106 4.44885,-2.0046 2.66237,0.845 3.70212,3.8498 2.26278,6.5392 -1.22773,2.2941 -0.4561,2.5342 3.41422,1.0627 3.88942,-1.4787 6.55745,-6.649 6.56182,-12.7159 0.004,-5.635 -1.39869,-7.826 -2.41584,-3.7734 -0.39387,1.5693 -1.97046,3.1596 -4.17408,4.2105 -3.18169,1.5172 -3.81212,1.5365 -6.21054,0.1903 -5.68042,-3.1883 -5.09688,-9.9364 0.85926,-9.9364 3.60369,0 5.13515,3.6565 2.37636,5.6738 -0.99752,0.7294 -1.35611,1.3262 -0.79686,1.3262 0.55924,0 1.99525,-1.0415 3.19113,-2.3145 3.446,-3.6681 2.9003,-8.5739 -1.59576,-14.3457 -5.65855,-7.2642 -7.06037,-9.7128 -11.2753,-19.6952 -2.12365,-5.0295 -3.88222,-8.2302 -3.90791,-7.1126 -0.0257,1.1177 -0.65846,4.3904 -1.40614,7.2728 -1.27944,4.9324 -1.25304,5.207 0.44885,4.6668 1.1091,-0.352 2.64162,0.2594 3.96358,1.5814 2.72507,2.7251 2.12394,6.4547 -2.05796,12.7682 -3.4668,5.2339 -3.51887,5.5121 -1.42362,7.6073 1.91751,1.9176 2.85163,1.9716 4.28233,0.2477 0.80229,-0.9667 0.78137,-1.6411 -0.0776,-2.5 -0.86367,-0.8637 -0.8805,-1.4719 -0.0633,-2.2891 1.57732,-1.5773 3.28713,-0.1995 3.28713,2.6488 0,3.3139 -3.91444,5.8273 -7.15612,4.5948 -4.97401,-1.8911 -6.2416,-6.3623 -4.57312,-16.1307 l 0.76862,-4.5 -2.97723,5.1402 c -2.17387,3.7532 -4.15323,5.7095 -7.33542,7.25 -9.10796,4.4091 -21.32809,1.6915 -26.32113,-5.8535 -8.94035,-13.5098 2.47714,-32.3199 15.52288,-25.5737 6.61736,3.422 5.02223,13.537 -2.13477,13.537 -3.0403,0 -5.07136,-2.1129 -4.20396,-4.3733 0.88369,-2.3028 4.15052,-2.0205 4.92697,0.4259 1.01061,3.1842 3.6626,0.4028 3.28436,-3.4446 -0.58433,-5.9437 -9.08023,-6.6803 -11.66323,-1.0112 -4.18134,9.177 2.02826,16.4032 14.09564,16.4032 7.43883,0 11.62371,-2.5023 15.01652,-8.9789 5.97615,-11.4079 1.44976,-24.5312 -9.19548,-26.6602 -2.32287,-0.4646 -3.18007,-0.1973 -3.69827,1.1531 -0.99498,2.5929 1.01217,4.9927 4.13003,4.9381 l 2.73285,-0.048 -2.22035,1.798 c -4.48929,3.6352 -13.59811,1.4072 -16.40022,-4.0115 -0.78941,-1.5265 -1.94392,-5.6814 -2.56557,-9.2331 -1.66196,-9.4951 -2.89397,-12.7296 -6.34655,-16.6618 -9.44776,-10.7604 -24.82574,-13.957 -39.93977,-8.3021 -20.659,7.7295 -28.21977,30.6291 -15.78187,47.7991 9.71618,13.4128 34.12198,11.9398 43.46873,-2.6236 8.32987,-12.9789 3.47069,-30.0734 -9.42811,-33.1678 -6.17843,-1.4822 -10.87004,-0.1393 -14.47299,4.1425 -4.17504,4.9618 -4.55951,10.6863 -0.9595,14.2863 2.11907,2.119 3.42707,1.9765 3.42707,-0.3734 0,-1.7828 3.3813,-5.0567 5.22251,-5.0567 1.84113,0 4.77749,4.2343 4.77749,6.8892 0,9.5142 -12.2816,10.0612 -18.107,0.8065 -2.33233,-3.7054 -2.07088,-10.5173 0.60207,-15.6862 4.48881,-8.6804 20.01649,-10.421 29.37377,-3.2928 7.9136,6.0285 9.29894,18.9167 3.3905,31.5428 -4.83866,10.34 -12.53507,14.7589 -25.63507,14.7185 -4.91921,-0.015 -8.47104,-0.6331 -11.47552,-1.9964 -2.39319,-1.086 -4.7197,-1.7468 -5.17002,-1.4685 -0.45032,0.2783 -2.01307,-0.9608 -3.47276,-2.7535 l -2.654,-3.2596 1.47049,3 c 0.80877,1.65 4.71745,6.6 8.68595,11 12.45543,13.8097 16.02084,25.6109 10.92064,36.1466 -4.69954,9.7079 -16.9198,11.9068 -23.39632,4.2099 -4.66041,-5.5386 -2.58688,-14.6935 3.80584,-16.8032 5.81809,-1.9202 10.61057,1.2753 10.6947,7.1309 l 0.0333,2.3158 1.95368,-2.3447 c 3.19088,-3.8294 4.36642,-9.8633 3.04896,-15.6499 -1.1469,-5.0374 -3.03443,-7.889 -12.98675,-19.6197 -2.97966,-3.5122 -6.80466,-9.3107 -8.5,-12.8857 -2.70295,-5.6998 -3.08214,-7.561 -3.08005,-15.1177 l 0.002,-8.6178 -2.38779,3.6178 c -3.43177,5.1993 -9.13955,11.0277 -12.61702,12.8835 -3.57411,1.9074 -14.96543,2.1772 -18.17202,0.4305 -4.684303,-2.5518 -5.327983,-4.0019 -5.327983,-12.0037 l 0,-7.6645 2.250003,3.1678 c 5.86129,8.2519 17.7417,10.0617 26.00361,3.9612 1.60677,-1.1864 5.01273,-5.3071 7.5688,-9.1571 6.53085,-9.8369 12.11921,-15.0709 20.25336,-18.9691 13.3808,-6.4126 26.62462,-6.8008 48.8357,-1.4314 9.85376,2.382 14.12738,1.9378 17.0452,-1.7716 2.27366,-2.8905 2.68023,-7.291 0.84333,-9.1279 -1.45314,-1.4532 -4.8,-1.5926 -4.8,-0.2 0,0.55 0.708,1 1.57332,1 2.3536,0 1.29157,3.4447 -1.17104,3.7982 -5.23165,0.7512 -5.57918,-6.6211 -0.43745,-9.28 9.69802,-5.0151 18.92337,3.0594 15.92061,13.9345 -1.26177,4.5698 -5.85414,9.5473 -8.80852,9.5473 -1.1423,0 -2.07692,0.45 -2.07692,1 0,0.55 1.59545,1 3.54545,1 4.1841,0 8.45455,3.6529 8.45455,7.232 0,4.7752 5.80493,10.0047 8.56392,7.7149 2.0637,-1.7127 1.77217,-2.6176 -0.81392,-2.5263 -1.75451,0.062 -2.25,-0.4712 -2.25,-2.4206 0,-1.97 0.57019,-2.5659 2.68942,-2.8106 3.84573,-0.4441 6.81447,2.859 6.79527,7.5606 -0.0185,4.524 -0.59695,5.4951 -4.48469,7.528 l -3,1.5687 4.5,2.0547 c 5.57928,2.5475 13.30365,2.6965 17.98007,0.347 9.78396,-4.9156 10.93213,-19.1397 1.92109,-23.7995 -4.15473,-2.1485 -5.70431,-1.87 -5.16924,0.9291 0.48878,2.5569 -2.69718,5.622 -5.84364,5.622 -3.10074,0 -5.99394,-3.3689 -6.56785,-7.6477 -0.49303,-3.6758 -0.18156,-4.5332 2.84734,-7.8383 4.23908,-4.6257 9.9709,-5.6251 17.64375,-3.0766 10.60505,3.5224 15.89127,13.2961 13.21813,24.439 -2.55267,10.6407 -11.27578,16.5885 -23.41318,15.9642 -3.64137,-0.1874 -6.61972,-0.2397 -6.61857,-0.1163 0.011,1.1723 6.90669,3.2722 10.70244,3.2592 4.90045,-0.017 8.03607,-1.4345 16.26436,-7.3538 10.92441,-7.8588 23.06013,-1.6094 23.02056,11.8547 -0.0202,6.8852 -1.74387,10.0156 -5.51479,10.0156 -2.3038,0 -2.97047,-0.4489 -2.97047,-2 0,-1.4309 0.6402,-1.9774 2.25,-1.9206 3.42714,0.1209 2.83723,-3.2894 -1.23299,-7.1281 -4.73838,-4.4689 -7.63419,-4.8723 -17.86032,-2.4879 -9.7787,2.2801 -13.32108,2.4949 -17.14874,1.0396 -1.4801,-0.5627 -2.37445,-0.596 -2.05334,-0.076 0.3129,0.5063 2.82759,1.6707 5.58819,2.5877 7.01389,2.3296 10.48915,5.6174 12.97721,12.2772 1.17295,3.1397 2.84304,6.496 3.7113,7.4585 1.98661,2.2023 5.44758,2.3798 4.62543,0.2373 -0.75757,-1.9742 1.38765,-4.5226 3.21637,-3.8208 2.38666,0.9158 1.71948,5.2431 -0.99937,6.4819 -3.52207,1.6048 -7.41057,0.2501 -11.75624,-4.0956 -4.02559,-4.0256 -4.49135,-4.1804 -2.74181,-0.9113 0.94649,1.7685 0.8564,1.8918 -0.75,1.0261 -2.6128,-1.4081 -5.8195,-5.1295 -7.8097,-9.0632 -1.04181,-2.0592 -1.99173,-2.9526 -2.41355,-2.2701 -1.02774,1.6629 -7.59487,-4.112 -10.69845,-9.4079 -1.42672,-2.4344 -2.76971,-4.4263 -2.98442,-4.4263 -0.97543,0 4.01938,10.8223 7.22086,15.6456 6.68384,10.0696 11.7556,13.4921 36.04317,24.3226 6.25601,2.7897 11.18902,7.6514 15.25221,15.0318 l 3.02796,5.5 0.0181,-4.095 c 0.0221,-4.9942 2.32203,-7.405 7.06429,-7.405 2.92886,0 4.43136,1.0855 11.07266,8 6.68857,6.9636 8.13006,8 11.12759,8 3.80933,0 6.80113,-2.5006 6.67464,-5.5788 -0.0434,-1.0567 -0.30592,-1.3587 -0.58333,-0.6712 -0.6421,1.5913 -4.56448,1.6232 -6.13772,0.05 -1.5425,-1.5425 -1.5425,-5.0575 0,-6.6 3.62233,-3.6223 11.8,0.9653 11.8,6.6197 0,6.7508 -7.13457,11.5359 -17.25,11.5696 -3.7125,0.012 -6.75,0.1163 -6.75,0.2311 0,0.8926 10.64975,5.8231 16.25578,7.5259 12.1343,3.6857 25.44819,1.5124 28.77106,-4.6965 1.50157,-2.8057 0.46895,-6.1577 -2.15335,-6.99 -2.64597,-0.8398 -3.8581,0.4097 -1.61516,1.6649 2.50586,1.4023 2.1437,3.735 -0.78722,5.0704 -3.66532,1.67 -7.85891,-1.5871 -8.27445,-6.4267 -0.47182,-5.495 3.14889,-9.1102 9.03493,-9.0212 2.50697,0.038 5.7077,0.8221 7.11275,1.7427 3.0905,2.025 5.05051,7.4359 4.16084,11.4865 -0.67471,3.0719 -5.62595,8.0236 -8.02289,8.0236 -0.75034,0 -1.67989,0.5107 -2.06566,1.1349 -0.50855,0.8228 0.6438,0.9365 4.19098,0.4135 6.62648,-0.977 11.02282,-3.1973 13.96264,-7.0516 2.21146,-2.8994 2.48501,-4.3161 2.73373,-14.1577 0.30172,-11.9385 1.62818,-15.7161 6.89762,-19.6437 3.56848,-2.6598 11.08067,-2.6218 14.6918,0.074 3.21737,2.4021 3.60746,6.7303 0.6066,6.7303 -1.56079,0 -1.95866,-0.6039 -1.81174,-2.75 0.15697,-2.2929 -0.21319,-2.75 -2.22694,-2.75 -3.83886,0 -5.88118,4.0377 -4.94156,9.7696 1.5912,9.7066 1.15776,15.8256 -1.36234,19.2327 l -2.34259,3.1671 2.23687,-1.1971 c 7.00577,-3.7494 13.44901,-12.0988 16.52816,-21.418 l 1.33961,-4.0543 -0.20973,5.3013 c -0.2024,5.1158 -0.15074,5.2285 1.47541,3.2193 2.28349,-2.8213 4.22778,-12.006 3.43551,-16.2291 -0.76919,-4.1002 -3.71161,-7.5253 -7.22155,-8.4062 -3.14688,-0.7898 -5.39698,1.0168 -3.55747,2.8563 0.98886,0.9889 1.43364,0.938 2.18469,-0.25 0.79299,-1.2543 0.94548,-1.2031 0.95836,0.3217 0.0122,1.4429 -0.64238,1.7494 -3.20349,1.5 -6.65882,-0.6482 -7.64835,-9.0945 -1.50436,-12.8406 7.81088,-4.7625 17.09766,0.062 19.30056,10.0273 l 0.77373,3.5 1.24758,-4 c 5.39649,-17.3022 -5.004,-40.5523 -22.7241,-50.7994 -13.38576,-7.7406 -32.76868,-7.6308 -43.6441,0.2473 -8.04752,5.8296 -12.9143,19.4158 -10.32207,28.8152 2.30375,8.3533 10.02503,14.0002 17.18524,12.5681 l 2.8601,-0.572 -2.97689,-2.7808 c -4.17505,-3.9001 -4.13536,-8.8259 0.0998,-12.3895 4.60914,-3.8784 10.13116,-3.1845 14.15103,1.7781 2.18545,2.698 2.32414,10.665 0.25531,14.6657 -4.31725,8.3487 -20.51024,8.7847 -28.13984,0.7578 -3.77644,-3.9731 -6.92239,-10.0303 -7.89095,-15.1932 l -0.7147,-3.8097 -2.61879,4.8218 c -3.64494,6.7113 -10.23784,10.6918 -18.47461,11.1542 -4.84011,0.2717 -6.82367,-0.082 -9.34563,-1.6651 -4.56205,-2.8644 -6.63737,-7.3535 -5.84432,-12.6419 0.91305,-6.0883 4.53975,-9.4566 10.18217,-9.4566 5.6569,0 8.36364,2.5389 8.36364,7.845 0,4.6822 -2.38039,7.155 -6.88776,7.155 -4.39349,0 -3.14165,1.5033 2.41745,2.9031 9.83794,2.4773 16.19354,-2.2203 20.88557,-15.437 6.85023,-19.2961 15.14889,-26.1279 33.02104,-27.1845 19.24854,-1.1379 35.62811,7.4585 45.5116,23.8858 2.93993,4.8864 3.34099,4.7244 1.65281,-0.6674 -0.34441,-1.1 0.31417,-0.047 1.4635,2.3397 1.14934,2.3868 2.27855,4.1509 2.50935,3.9201 0.64896,-0.649 -2.55854,-10.7972 -4.80899,-15.2152 -5.03876,-9.892 -20.40905,-21.8001 -36.93339,-28.6142 -4.00257,-1.6506 -8.302,-3.9636 -9.55429,-5.14 -2.96196,-2.7826 -2.98785,-7.179 -0.0544,-9.2337 4.86138,-3.405 11.77751,-0.5022 11.77751,4.9433 0,1.375 -0.9,3.4 -2,4.5 -1.1,1.1 -2,2.225 -2,2.5 0,0.275 4.93963,0.5 10.97695,0.5 10.71578,0 11.01745,0.062 12.67928,2.5981 1.36982,2.0906 1.47033,2.9696 0.51458,4.5 -1.0533,1.6866 -0.8926,1.9019 1.41959,1.9019 7.19321,0 13.4096,6.4434 13.4096,13.8994 0,2.8104 0.49607,4.3537 1.52651,4.7491 2.6748,1.0264 6.30722,8.6249 7.54372,15.7803 2.12816,12.3152 -0.06,27.7388 -5.43656,38.3212 -1.46705,2.8875 -2.45752,5.25 -2.20104,5.25 0.25647,0 2.52262,-2.8817 5.03588,-6.4037 5.81317,-8.1464 9.8397,-17.0374 12.53954,-27.6886 2.42997,-9.5865 4.06487,-12.6047 7.54425,-13.9276 1.86437,-0.7088 2.4477,-1.6633 2.4477,-4.005 0,-5.9485 4.06622,-10.9751 8.87818,-10.9751 1.49256,0 2.70924,-1.5589 4.72843,-6.0582 4.82011,-10.7407 15.09517,-17.3356 29.03786,-18.6375 7.38884,-0.69 11.70256,1.2449 11.1668,5.0089 -0.43879,3.0827 -3.30077,2.8153 -3.35304,-0.3132 -0.0392,-2.3439 -0.33727,-2.4847 -4.77291,-2.2553 -6.73639,0.3486 -14.10812,4.4655 -21.74769,12.1457 -8.20214,8.2457 -12.37635,14.4131 -23.42457,34.6096 -4.81392,8.8 -10.3496,18.25 -12.3015,21 -1.95191,2.75 -2.79801,4.3824 -1.88024,3.6275 2.41128,-1.9832 2.05171,-0.1641 -0.50563,2.558 -1.19588,1.273 -1.69355,2.3145 -1.10595,2.3145 0.98023,0 10.06908,-9.7609 18.15736,-19.5 7.93915,-9.5595 17.81481,-18.6914 22.90919,-21.1839 18.05394,-8.833 34.48882,1.21 32.96879,20.1464 -1.02866,12.8148 -7.82808,19.5375 -19.7607,19.5375 -7.99567,0 -10.99438,-2.5997 -10.99438,-9.5315 0,-6.2199 3.95651,-10.4685 9.74876,-10.4685 5.5362,0 8.6139,3.4 8.08623,8.933 -0.43332,4.5439 -0.21989,4.7253 2.94822,2.5063 6.56642,-4.5993 7.03091,-16.6331 0.90018,-23.3212 -5.13814,-5.6054 -13.7534,-7.4136 -21.80766,-4.5771 -7.57241,2.6668 -11.61522,6.3151 -35.41411,31.959 -12.76076,13.75 -26.09705,27.7655 -29.63621,31.1456 -7.08704,6.7684 -16.39852,13.1582 -23.3266,16.0074 -5.13407,2.1113 -5.71843,3.2801 -1.74881,3.4978 9.07641,0.4977 14.64726,-2.2301 20.63157,-10.1023 5.21522,-6.8604 9.44332,-9.3879 15.85642,-9.4787 4.02987,-0.057 5.28752,0.3637 6.84914,2.291 3.38012,4.1716 2.03399,10.1392 -2.28713,10.1392 -2.55026,0 -2.37889,-4.0359 0.2,-4.7103 3.69423,-0.966 1.58741,-5.2897 -2.57756,-5.2897 -2.96815,0 -4.25062,1.8224 -5.34785,7.5992 -1.79696,9.4608 -4.2545,12.9067 -11.30612,15.853 -5.66715,2.3679 -9.98406,1.944 -18.82133,-1.8485 -1.26594,-0.5433 -1.48018,-0.044 -1.1595,2.703 0.58585,5.0182 -2.97894,7.8705 -7.53764,6.031 z"
         id="path4465" />
      <path
         inkscape:connector-curvature="0"
         style="fill:#000000"
         d="m 125.34375,1226.1751 c -6.18701,-1.22 -11.43976,-4.2514 -16.06931,-9.2739 -4.79327,-5.2001 -6.55344,-10.1568 -6.09825,-17.1729 0.25668,-3.9563 0.71627,-5.0656 2.21682,-5.3509 1.57931,-0.3002 1.76764,0.03 1.13648,1.991 -3.86923,12.0234 1.18075,19.876 15.12375,23.517 10.70569,2.7957 20.76083,0 27.67194,-7.6829 7.02265,-7.8109 9.43569,-18.7409 6.17672,-27.9778 -2.37991,-6.7454 -9.87784,-16.3507 -18.02218,-23.0874 -7.89588,-6.5313 -9.41231,-8.8609 -2.84696,-4.3737 2.12698,1.4537 5.91253,3.6868 8.41234,4.9624 7.11815,3.6323 14.52512,10.9059 17.608,17.2909 2.32357,4.8124 2.76058,7.0318 2.80009,14.2202 0.0422,7.6826 -0.28006,9.1821 -3.28703,15.293 -2.39899,4.8754 -4.73655,7.884 -8.33614,10.7293 -7.03292,5.5592 -18.36301,8.5176 -26.48627,6.9158 z"
         id="path4467" />
      <path
         inkscape:connector-curvature="0"
         style="fill:#000000"
         d="m 496.08137,1216.6308 c -7.09274,-1.9069 -11.61773,-4.7888 -15.12809,-9.6347 -5.46652,-7.5463 -4.79202,-18.0749 1.39981,-21.8505 10.6126,-6.4711 22.21008,5.6644 13.62125,14.2532 -2.55695,2.5569 -3.64135,2.9669 -7,2.6466 -2.18589,-0.2084 -3.97434,-0.1209 -3.97434,0.1945 0,0.3154 1.6875,2.2176 3.75,4.2271 5.5576,5.4147 12.14562,7.9406 22.20438,8.5131 10.29578,0.5861 17.89602,-0.8463 26.0133,-4.9025 20.70561,-10.3467 29.40705,-37.3336 20.18507,-62.6024 -6.91198,-18.9393 -17.57938,-28.4875 -38.21525,-34.206 -13.9031,-3.8528 -30.83579,-2.0291 -45.6875,4.9204 -5.88076,2.7518 -8.37761,4.6439 -4.5,3.4101 0.9625,-0.3063 -0.725,0.8246 -3.75,2.513 -3.31139,1.8483 -9.42794,7.156 -15.37095,13.3382 -8.97332,9.3346 -9.42801,9.6802 -5,3.8004 20.0774,-26.66 44.80339,-40.454 72.37095,-40.374 16.28759,0.047 30.50637,5.1679 40.24655,14.494 5.21526,4.9936 5.22032,5.0043 0.6967,1.477 -6.29587,-4.9093 -16.23666,-9.3749 -25.03731,-11.2471 -9.8986,-2.1059 -27.56419,-1.3629 -37.84424,1.5916 -9.24877,2.6582 -12.31455,4.3144 -6.0617,3.2747 2.475,-0.4115 9.45,-0.7127 15.5,-0.6693 9.50547,0.068 12.16086,0.4839 19.54417,3.0599 15.2728,5.3286 24.6931,13.5546 31.71903,27.6975 4.96232,9.989 6.49806,17.6043 5.98211,29.6637 -0.55553,12.9845 -2.54298,19.1103 -9.20735,28.3794 -6.03654,8.3959 -14.60651,14.6348 -24.15315,17.5834 -7.97424,2.463 -23.98425,2.6854 -32.30344,0.4487 z"
         id="path4469" />
      <path
         inkscape:connector-curvature="0"
         style="fill:#000000"
         d="m 78.597327,1205.6009 c 0.96935,-8.829 3.868703,-13.4517 9.960073,-15.8802 l 5.01988,-2.0014 -2.3464,-2 c -1.29052,-1.1 -3.22415,-4.6687 -4.29696,-7.9305 -2.1025,-6.3924 -4.30649,-9.5094 -6.83891,-9.6719 -0.877253,-0.056 -0.02,-0.4998 1.90499,-0.9856 4.09979,-1.0346 10.34183,-0.2684 14.29422,1.7548 3.32002,1.6994 6.67695,6.8369 6.75189,10.3332 0.0459,2.1395 0.34951,1.8898 2.10612,-1.7317 3.51821,-7.2535 10.83705,-9.8205 21.76718,-7.6344 l 3.16942,0.6339 -2.94606,1.7916 c -1.65466,1.0062 -4.38024,4.4823 -6.21786,7.9301 -3.58077,6.7182 -6.72905,9.0105 -12.37525,9.0105 -1.95231,0 -3.54966,0.45 -3.54966,1 0,0.55 -0.675,1 -1.5,1 -0.88778,0 -1.50153,0.9183 -1.50374,2.25 -0.005,3.1875 -3.57013,8.6375 -6.33809,9.6899 -1.28751,0.4895 -4.5445,1.2204 -7.23777,1.6243 -3.56585,0.5347 -5.65411,1.545 -7.68284,3.7167 l -2.785983,2.9824 0.64575,-5.8817 z"
         id="path4471" />
      <path
         inkscape:connector-curvature="0"
         style="fill:#000000"
         d="m 97.25,1193.7744 c 3.35894,-1.3015 5.3232,-4.5551 2.75,-4.5551 -0.55,0 -1,0.4012 -1,0.8916 0,0.4904 -1.21005,1.1953 -2.68901,1.5665 -3.10746,0.7799 -8.31099,4.2632 -8.31099,5.5635 0,0.4869 1.2375,0.2331 2.75,-0.5641 1.5125,-0.7972 4.4375,-2.1033 6.5,-2.9024 z"
         id="path4473" />
      <path
         inkscape:connector-curvature="0"
         style="fill:#000000"
         d="m 106.13444,1186.6797 c 0.89895,-0.5282 3.27111,-3.1145 5.27148,-5.7472 l 3.63703,-4.7868 -2.9928,1.5476 c -1.64604,0.8512 -4.1307,3.2223 -5.52147,5.269 -1.98486,2.921 -2.5438,3.295 -2.59897,1.7391 -0.0696,-1.9627 -0.0779,-1.9625 -0.85142,0.018 -0.69308,1.7746 -1.01132,1.5491 -2.8233,-2 C 98.47366,1179.2303 94,1174.0064 94,1175.4155 c 0,0.7499 5.03131,10.1075 6.20032,11.5317 1.09905,1.3391 3.37483,1.2365 5.93412,-0.2674 z"
         id="path4475" />
      <path
         inkscape:connector-curvature="0"
         style="fill:#000000"
         d="m 506.10791,1204.0252 c -4.21838,-0.9411 -4.29867,-1.0264 -2.03001,-2.1574 1.29914,-0.6477 3.36002,-2.7461 4.57973,-4.6631 4.71219,-7.406 5.52237,-8 12.34237,-9.0485 8.2014,-1.2609 13.58538,-4.8471 17.22664,-11.4743 3.08796,-5.6202 3.78918,-5.3537 0.86099,0.3272 -2.954,5.731 -10.35083,11.9829 -16.08763,13.5974 -2.71361,0.7637 -8.98132,7.6128 -6.96657,7.6128 0.67673,0 2.82274,-1.6875 4.76892,-3.75 l 3.53851,-3.75 -0.62768,3.874 c -0.74045,4.57 -3.00203,7.3894 -7.43106,9.264 -3.6146,1.5299 -4.03808,1.5369 -10.17421,0.1679 z"
         id="path4477" />
      <path
         inkscape:connector-curvature="0"
         style="fill:#000000"
         d="m 541.15789,1167.2193 c 0,-1.375 0.22698,-1.9375 0.50439,-1.25 0.27741,0.6875 0.27741,1.8125 0,2.5 -0.27741,0.6875 -0.50439,0.125 -0.50439,-1.25 z"
         id="path4479" />
      <path
         inkscape:connector-curvature="0"
         style="fill:#000000"
         d="m 582.5,1161.8168 c -1.65,-0.7284 -3.84072,-2.2675 -4.86826,-3.4203 -2.18959,-2.4566 -3.412,-10.577 -1.7471,-11.6059 0.61345,-0.3792 1.11704,-0.1003 1.1191,0.6197 0.005,1.7191 3.95753,8.1811 4.60692,7.5317 0.27659,-0.2766 -0.47221,-2.5774 -1.66401,-5.1128 -1.45214,-3.0893 -2.79029,-4.6099 -4.05678,-4.6099 -1.03943,0 -1.88987,-0.675 -1.88987,-1.5 0,-0.825 0.675,-1.5 1.5,-1.5 0.825,0 1.5,0.3937 1.5,0.875 0,0.4812 1.26535,1.128 2.81188,1.4374 4.57484,0.9149 7.14701,3.783 8.68812,9.6876 0.79665,3.0523 2.38925,6.2788 3.57854,7.25 2.11371,1.726 2.08337,1.7494 -2.21776,1.7108 -2.39843,-0.022 -5.71078,-0.635 -7.36078,-1.3633 z"
         id="path4481" />
      <path
         inkscape:connector-curvature="0"
         style="fill:#000000"
         d="m 541.16388,1158.2193 c -0.48372,-9.1254 -6.10107,-20.7968 -13.20941,-27.4458 -7.48456,-7.001 -16.7238,-10.9851 -29.95447,-12.9168 -1.375,-0.2008 -0.45704,-0.4263 2.0399,-0.5012 5.41511,-0.1625 14.45738,2.0565 20.09001,4.9301 12.55125,6.4031 22.7011,22.9141 21.60423,35.144 -0.35016,3.9043 -0.40139,3.9753 -0.57026,0.7897 z"
         id="path4483" />
      <path
         inkscape:connector-curvature="0"
         style="fill:#000000"
         d="m 486.26903,1117.5263 c 0.97297,-0.2535 2.32297,-0.2369 3,0.037 0.67703,0.2739 -0.11903,0.4814 -1.76903,0.461 -1.65,-0.02 -2.20394,-0.2445 -1.23097,-0.4981 z"
         id="path4485" />
      <path
         inkscape:connector-curvature="0"
         style="fill:#000000"
         d="m 393.94428,1113.6403 c -16.18127,-12.1162 -43.78561,-15.2024 -58.47201,-6.5372 -3.81635,2.2517 -6.47227,1.8897 -6.47227,-0.8822 0,-2.3082 -6.61133,-5.0016 -12.27684,-5.0016 -2.33,0 -5.69589,-0.4186 -7.47976,-0.9302 -4.42304,-1.2685 -4.0802,0.092 0.70035,2.7784 2.39025,1.3434 6.57335,2.4621 10.61926,2.8399 6.61056,0.6173 6.65302,0.6403 4.36401,2.3669 -2.80795,2.1181 -8.6312,3.947 -12.54304,3.9394 -11.84017,-0.023 -19.81618,-8.0185 -24.75393,-24.8149 l -1.56409,-5.3204 2.81472,3.0132 c 3.48251,3.728 4.74626,4.0103 19.48353,4.3523 l 11.86422,0.2754 4.38578,4.8467 c 2.41219,2.6657 4.38579,5.7618 4.38579,6.8801 0,1.8184 0.44926,1.9707 4.25,1.441 2.3375,-0.3258 6.71057,-1.2843 9.71793,-2.1301 11.60379,-3.2633 27.31267,-1.4311 39.47757,4.6046 6.51029,3.2301 17.22266,10.8577 15.24878,10.8577 -0.16815,0 -1.85565,-1.1606 -3.75,-2.579 z"
         id="path4487" />
    </g>
  </g>
</svg>
