<?xml version="1.0" encoding="UTF-8" standalone="no"?>
<!-- Created with Inkscape (http://www.inkscape.org/) -->

<svg
   xmlns:dc="http://purl.org/dc/elements/1.1/"
   xmlns:cc="http://creativecommons.org/ns#"
   xmlns:rdf="http://www.w3.org/1999/02/22-rdf-syntax-ns#"
   xmlns:svg="http://www.w3.org/2000/svg"
   xmlns="http://www.w3.org/2000/svg"
   xmlns:sodipodi="http://sodipodi.sourceforge.net/DTD/sodipodi-0.dtd"
   xmlns:inkscape="http://www.inkscape.org/namespaces/inkscape"
   width="726.2442"
   height="701.2301"
   viewBox="0 0 726.24418 701.23011"
   id="svg3460"
   version="1.1"
   inkscape:version="0.91 r13725"
   sodipodi:docname="heart.svg">
  <defs
     id="defs3462" />
  <sodipodi:namedview
     id="base"
     pagecolor="#ffffff"
     bordercolor="#666666"
     borderopacity="1.0"
     inkscape:pageopacity="0.0"
     inkscape:pageshadow="2"
     inkscape:zoom="0.98994949"
     inkscape:cx="534.05469"
     inkscape:cy="595.36897"
     inkscape:document-units="px"
     inkscape:current-layer="layer1"
     showgrid="false"
     units="px"
     inkscape:window-width="1879"
     inkscape:window-height="1176"
     inkscape:window-x="41"
     inkscape:window-y="24"
     inkscape:window-maximized="1"
     fit-margin-top="0"
     fit-margin-left="0"
     fit-margin-right="0"
     fit-margin-bottom="0" />
  <metadata
     id="metadata3465">
    <rdf:RDF>
      <cc:Work
         rdf:about="">
        <dc:format>image/svg+xml</dc:format>
        <dc:type
           rdf:resource="http://purl.org/dc/dcmitype/StillImage" />
        <dc:title></dc:title>
      </cc:Work>
    </rdf:RDF>
  </metadata>
  <g
     inkscape:label="Layer 1"
     inkscape:groupmode="layer"
     id="layer1"
     transform="translate(-840.71061,-1063.6093)">
    <g
       id="g5233"
       transform="matrix(8.453006,0,0,8.453006,-8972.1751,-10540.219)"
       style="opacity:0.5;fill:#8f1e15;fill-opacity:1">
      <path
         style="fill:#8f1e15;fill-opacity:1"
         d="m 1199.296,1454.7769 c 0.4471,-3.5925 4.649,-10.7355 9.523,-16.1883 1.2283,-1.3742 1.171,-1.3417 -0.6491,0.3679 -1.0978,1.0313 -2.0793,1.875 -2.181,1.875 -0.1017,0 0.1229,-0.5516 0.499,-1.2258 1.2386,-2.2197 5.0984,-5.8042 9.0018,-8.3596 3.2075,-2.0999 3.8613,-2.672 5.0716,-4.4376 2.062,-3.0084 5.1651,-6.2336 6.5186,-6.7752 3.0105,-1.2045 6.5605,-8.098 7.0563,-13.7018 l 0.1725,-1.95 -0.7584,2.8123 c -0.9192,3.4083 -2.3401,6.312 -4.2303,8.6442 -2.7285,3.3666 -3.2134,3.2166 -0.8252,-0.2553 2.7038,-3.9308 4.3364,-7.9633 4.7779,-11.8012 0.1138,-0.99 0.3125,-1.935 0.4413,-2.1 0.5602,-0.7173 -0.8614,-6.3064 -2.4362,-9.5782 -1.0146,-2.1079 -1.0999,-3.1642 -0.273,-3.3804 0.4697,-0.1228 0.5736,-0.394 0.5352,-1.3969 -0.041,-1.0642 -0.2545,-1.4435 -1.4761,-2.6182 -3.1694,-3.0476 -7.617,-4.411 -12.017,-3.6837 -0.8021,0.1325 -1.125,0.3371 -1.125,0.7125 0,0.4882 -1.5922,1.4949 -2.3643,1.4949 -0.1779,0 -0.9,0.2362 -1.6046,0.5249 l -1.2811,0.5249 1.2,0.1659 c 1.1721,0.162 1.1826,0.1738 0.45,0.5117 -0.4125,0.1903 -1.695,0.7106 -2.85,1.1563 -1.155,0.4457 -2.9435,1.3411 -3.9744,1.9898 -2.3386,1.4716 -5.8229,5.2145 -6.9454,7.4608 -0.4671,0.9349 -1.1894,2.1533 -1.605,2.7077 -0.4155,0.5544 -0.8422,1.2939 -0.948,1.6434 -0.3353,1.1069 -1.2166,1.6627 -2.4728,1.5595 -1.1502,-0.095 -1.1544,-0.1 -1.1544,-1.4167 0,-1.4715 -0.3946,-1.8182 -1.1364,-0.9984 -0.4401,0.4863 -0.4458,0.6347 -0.053,1.3916 0.2417,0.4659 0.4395,1.1858 0.4395,1.5996 0,1.0265 -0.5037,0.5791 -2.0912,-1.8574 -0.8509,-1.3061 -1.5416,-2.0171 -2.1996,-2.2643 -0.5276,-0.1982 -1.7692,-0.7083 -2.7592,-1.1336 -3.5969,-1.5452 -6.8526,-1.2048 -10.1534,1.0615 -2.25,1.5449 -2.8527,2.2566 -4.1115,4.8551 -1.1835,2.4433 -1.4026,5.1977 -0.6392,8.0385 0.6156,2.291 0.4179,2.5728 -0.5147,0.7338 -0.5003,-0.9865 -1.0275,-3.0147 -1.34,-5.1546 -0.06,-0.4125 -0.1279,0.4208 -0.1503,1.8517 -0.039,2.4957 0.01,2.7002 1.1994,5.0207 2.4877,4.852 6.615,8.9786 16.3097,16.3071 4.4039,3.329 11.4971,9.3129 11.5883,9.776 0.021,0.107 0.069,0.4645 0.1068,0.7945 0.038,0.33 0.5604,1.5754 1.1617,2.7675 1.1653,2.3105 1.3708,3.3825 0.6482,3.3825 -0.2447,0 -1.7248,-1.6111 -3.2892,-3.5801 -2.5588,-3.2207 -5.4598,-6.0604 -7.0739,-6.9242 -0.6061,-0.3244 -0.8749,0.094 -0.2919,0.4543 0.165,0.102 0.2951,0.4137 0.2892,0.6927 -0.01,0.3748 -0.2034,0.2723 -0.7485,-0.3927 -0.9269,-1.1308 -0.9278,-0.9322 0,1.0887 0.4047,0.8862 0.9447,2.4159 1.2,3.3993 0.5107,1.9676 0.623,4.4956 0.1877,4.2266 -0.152,-0.094 -0.6412,-1.2832 -1.087,-2.6427 -0.9161,-2.7937 -2.1699,-5.305 -3.372,-6.7536 -0.7248,-0.8735 -1.1783,-1.0638 -4.1146,-1.7259 -4.0498,-0.9132 -6.6663,-1.7764 -7.6304,-2.5173 -0.7226,-0.5552 -0.7245,-0.5703 -0.1825,-1.3975 0.5473,-0.8352 0.5469,-0.8372 -0.3196,-1.5304 -0.9172,-0.734 -1.7594,-0.8958 -2.0675,-0.3972 -0.3833,0.6202 -1.0619,0.2567 -2.0155,-1.0798 -0.5415,-0.7589 -1.4739,-1.9402 -2.072,-2.625 -2.7281,-3.1236 -5.9409,-11.0137 -6.1874,-15.1952 -0.073,-1.2375 0.01,-3.7299 0.1774,-5.5386 0.2697,-2.8593 0.4551,-3.5742 1.421,-5.477 1.4414,-2.8398 4.1184,-5.5846 6.8765,-7.0507 3.062,-1.6277 1.7178,-1.3741 -1.875,0.3537 -1.6912,0.8133 -3.075,1.3579 -3.075,1.2101 0,-0.8351 5.8652,-3.8022 8.7065,-4.4045 4.2357,-0.8979 14.8098,0.8203 18.331,2.9785 1.3926,0.8536 0.6823,0.9813 -1.3958,0.2509 l -1.7236,-0.6058 2.3993,2.229 c 1.3196,1.2259 2.5694,2.6397 2.7773,3.1417 0.4866,1.1746 0.786,1.1558 0.9905,-0.062 0.09,-0.5362 0.2626,-1.245 0.3834,-1.575 0.1806,-0.4931 0.1477,-0.5332 -0.1844,-0.225 -1.3816,1.2818 -1.1361,-0.8537 0.4325,-3.7632 2.0271,-3.76 3.9082,-6.2143 7.5201,-9.8118 2.3531,-2.3437 3.9652,-3.6652 5.5632,-4.5603 2.5793,-1.4448 6.7594,-2.9124 9.6,-3.3706 2.5589,-0.4128 7.6583,-0.4054 9.6602,0.014 1.5874,0.3325 3.8398,1.3847 3.8398,1.7937 0,0.119 0.6413,0.5861 1.425,1.038 4.9591,2.8598 8.8944,7.7377 10.7584,13.3353 0.3502,1.0517 0.5838,1.432 0.6442,1.0489 0.052,-0.3305 -0.3639,-1.9843 -0.9245,-3.675 -0.5607,-1.6906 -0.9078,-3.0739 -0.7714,-3.0739 0.1364,0 0.793,0.9788 1.4592,2.175 5.2913,9.5012 3.0741,23.2142 -5.0071,30.9678 -1.1186,1.0733 -2.135,1.9527 -2.2588,1.9543 -0.3941,0.01 -0.2431,-0.629 0.3472,-1.4581 0.9543,-1.3402 3.2097,-6.067 3.8836,-8.139 2.2615,-6.9544 2.3539,-16.3035 0.2005,-20.2975 -0.6243,-1.1579 -0.7443,-1.27 -0.5917,-0.5525 0.1052,0.495 0.3789,1.7775 0.6082,2.85 0.4853,2.2707 0.5633,8.3797 0.1264,9.902 -0.1655,0.5764 -0.4351,2.4639 -0.5992,4.1945 -0.1735,1.8296 -0.6217,4.1175 -1.0711,5.4668 -1.4094,4.2322 -5.3148,9.7524 -8.8242,12.4729 -5.2835,4.0958 -8.4047,6.8067 -8.4047,7.2998 0,0.137 0.4388,0.1767 0.975,0.088 0.9363,-0.1543 0.9512,-0.1415 0.375,0.321 -0.33,0.2649 -1.68,1.1843 -3,2.0431 -2.2383,1.4563 -2.4749,1.7128 -3.512,3.8072 -1.1773,2.3773 -1.9625,3.1459 -1.6545,1.6195 0.096,-0.4759 0.2735,-1.1213 0.3945,-1.4342 0.1404,-0.3633 -0.5924,0.042 -2.0272,1.1223 -2.4674,1.8572 -5.3508,5.0687 -8.1064,9.0291 -1.6286,2.3407 -2.7278,3.3622 -2.1977,2.0426 0.604,-1.5038 0.6016,-1.4543 0.048,-1.0042 -0.6256,0.5091 -2.2858,3.4674 -3.2152,5.7292 -0.9046,2.2012 -1.2958,2.571 -1.1059,1.0454 z m 23.9259,-26.2507 c 1.2375,-1.0475 2.8575,-2.5873 3.6,-3.4219 1.1681,-1.3129 1.0078,-1.2146 -1.19,0.7299 -2.6486,2.3434 -6.7149,6.2525 -5.41,5.2009 0.4125,-0.3325 1.7625,-1.4615 3,-2.5089 z m -42.8699,2.1615 c -0.5136,-0.9595 -2.9671,-3.0293 -3.8374,-3.2371 -1.7093,-0.4081 -4.5441,-1.9248 -5.3192,-2.8459 -0.895,-1.0637 -0.8472,-1.3943 0.1265,-0.8732 1.2657,0.6774 0.8641,0.09 -1.2059,-1.7631 -1.1517,-1.0312 -2.0941,-1.7928 -2.0941,-1.6924 0,0.3396 2.9202,4.5012 3.5625,5.077 0.3506,0.3143 0.6375,0.7414 0.6375,0.949 0,0.4618 2.3473,2.2295 2.9605,2.2295 0.2432,0 0.6554,0.1872 0.9159,0.4159 0.5782,0.5078 3.9039,2.2841 4.2764,2.2841 0.1494,0 0.1393,-0.241 -0.023,-0.5438 z m -15.5625,-22.7005 c -0.1484,-2.8382 0.316,-5.7248 0.8664,-5.3847 0.1425,0.088 0.1758,-0.057 0.074,-0.3222 -0.1115,-0.2907 0.071,-0.7212 0.4601,-1.0835 0.3549,-0.3306 1.192,-1.4668 1.8602,-2.5249 1.1157,-1.7665 3.8203,-4.3404 4.5609,-4.3404 0.1709,0 0.2354,-0.075 0.1432,-0.1676 -0.2608,-0.2608 -2.3254,0.6908 -3.9998,1.8434 -1.1474,0.7899 -1.796,1.5605 -2.6605,3.161 -1.1345,2.1004 -2.2721,6.2396 -2.2721,8.2669 0,0.8205 0.7893,3.3963 1.0408,3.3963 0.042,0 0.01,-1.2799 -0.073,-2.8443 z m 71.8312,-15.971 c -0.2346,-0.4591 -0.5271,-1.3072 -0.6501,-1.8847 -0.4227,-1.9852 -2.2229,-5.0575 -4.082,-6.9664 -1.5672,-1.6093 -1.6382,-1.6555 -0.4878,-0.3176 1.2398,1.4418 2.6211,3.8558 2.6211,4.5807 0,0.4145 -0.7007,0.3826 -1.135,-0.052 -0.7291,-0.7291 -0.66,0.015 0.083,0.8985 0.8677,1.0312 2.5824,4.6061 3.1928,6.6565 l 0.4019,1.35 0.2411,-1.7153 c 0.1801,-1.2812 0.1332,-1.9266 -0.1855,-2.55 z m 7.9288,1.1968 c -0.2598,-0.4464 -0.3108,-0.3793 -0.3185,0.419 0,0.5227 0.092,1.1977 0.2159,1.5 0.1768,0.4317 0.245,0.3419 0.3185,-0.419 0.052,-0.5327 -0.046,-1.2077 -0.2159,-1.5 z m -60.3526,-1.9909 c -0.069,-0.06 -0.4625,-0.2701 -0.875,-0.4665 -0.7072,-0.3368 -0.7168,-0.3306 -0.1677,0.1094 0.4779,0.3828 1.4544,0.7173 1.0427,0.3571 z m 15.5916,-1.6156 c 0.4513,-0.4537 1.5546,-1.9003 2.4519,-3.2146 2.2086,-3.2349 2.1676,-3.1604 1.7384,-3.1604 -0.6611,0 -3.3778,3.0949 -4.3819,4.992 -1.3272,2.5073 -1.2782,2.8609 0.1916,1.383 z m 14.8581,-10.8341 c 0.1032,-0.167 -0.3323,-0.1654 -1.102,0 -1.3143,0.2892 -4.0059,1.9179 -4.2588,2.5771 -0.1534,0.3998 5.074,-2.1171 5.3608,-2.5811 z m 2.7941,-0.5222 c -0.1,-0.1 -0.3585,-0.1103 -0.575,-0.024 -0.2394,0.096 -0.1683,0.1668 0.1812,0.1812 0.3162,0.013 0.4934,-0.058 0.3938,-0.1576 z m 5.1812,-0.1187 c -0.2475,-0.1599 -1.125,-0.2769 -1.95,-0.2599 -1.3053,0.027 -1.3832,0.061 -0.6,0.2599 1.394,0.3547 3.0989,0.3547 2.55,0 z m -13.5,67.4051 c 0,-0.41 1.5549,-3.3388 2.2988,-4.3301 0.6794,-0.9052 1.3163,-1.2756 1.2899,-0.75 -0.015,0.3055 -3.5887,5.3638 -3.5887,5.0801 z"
         id="path5219"
         inkscape:connector-curvature="0" />
      <path
         style="fill:#8f1e15;fill-opacity:1"
         d="m 1200.2693,1452.3815 c 0.2186,-1.051 1.5971,-3.8037 3.0799,-6.15 1.8131,-2.869 5.3689,-7.0324 8.9296,-10.4554 1.8937,-1.8205 3.4431,-3.5166 3.4431,-3.7691 0,-0.2525 0.7693,-0.969 1.7096,-1.5923 1.1548,-0.7655 2.3711,-2.0093 3.7485,-3.8332 2.2134,-2.931 3.5527,-4.218 3.8644,-3.7136 0.3365,0.5445 5.5703,-5.6589 6.8507,-8.1199 3.6506,-7.0171 3.4861,-14.3579 -0.5194,-23.1723 -0.8109,-1.7845 -0.8604,-2.0483 -0.4483,-2.3903 0.6526,-0.5416 1.2716,0.3014 2.5,3.4044 0.5425,1.3704 1.1112,2.6267 1.2638,2.7917 0.3422,0.3701 0.014,-1.6265 -0.5373,-3.2695 -0.3263,-0.9723 -0.3253,-1.0988 0.01,-0.75 0.5319,0.5604 1.8465,4.5517 2.1063,6.3952 0.323,2.2917 0.7461,1.0722 0.7514,-2.1656 0,-1.756 -0.1459,-3.0901 -0.4016,-3.6 -0.2234,-0.4456 -0.5667,-1.4667 -0.7629,-2.2692 -0.9087,-3.7168 -3.2359,-6.8417 -6.8687,-9.2232 -3.5769,-2.3448 -5.0339,-2.7942 -9.0622,-2.7952 -3.3595,-9e-4 -7.0377,0.4953 -8.25,1.1129 -1.8808,0.9581 -5.5858,4.4788 -5.1608,4.9038 0.078,0.078 1.2999,-0.6126 2.715,-1.535 1.4151,-0.9224 3.3438,-2.018 4.2859,-2.4347 3.6305,-1.6055 9.4769,-1.5082 13.555,0.2258 2.376,1.0102 6.6549,5.6692 6.6549,7.2461 0,0.4209 -0.6798,-0.07 -2.5502,-1.84 -2.926,-2.7698 -5.3162,-4.0837 -8.2558,-4.5383 -2.7638,-0.4275 -7.5028,0.1653 -9.1969,1.1505 -0.4935,0.287 -0.475,0.319 0.1879,0.3273 0.9826,0.012 0.5043,0.388 -1.335,1.049 -2.2211,0.7981 -2.2952,1.0601 -0.3,1.0601 0.9791,0 1.6427,0.1124 1.485,0.2515 -0.1567,0.1383 -1.3949,0.6857 -2.7514,1.2163 -1.3565,0.5306 -3.1115,1.3181 -3.9,1.7499 -1.9877,1.0886 -6.3149,5.5427 -7.5836,7.806 -1.9602,3.497 -3.2818,5.1763 -4.0737,5.1763 -0.8817,0 -0.8973,-0.1379 -0.1263,-1.1181 0.33,-0.4196 0.6,-1.0146 0.6,-1.3224 0,-0.3595 -0.2145,-0.5595 -0.6,-0.5595 -0.7595,0 -0.7603,-0.4912 -0.01,-3.1313 0.6557,-2.2931 0.6065,-2.8213 -0.1303,-1.3966 -0.2639,0.5104 -0.6113,0.9279 -0.7721,0.9279 -1.339,0 2.9223,-7.1096 6.9554,-11.6044 3.9177,-4.3663 7.7162,-6.8546 12.8864,-8.4417 5.7474,-1.7644 15.5296,-1.5423 15.3711,0.3489 -0.031,0.3666 0.3931,0.728 1.35,1.1513 2.9476,1.3037 3.4419,1.6143 5.3461,3.3592 4.8806,4.4722 7.3923,9.9008 7.9166,17.1099 0.145,1.9948 0.2834,3.8293 0.3074,4.0768 0.024,0.2475 0.1554,-0.09 0.2919,-0.75 0.5312,-2.5682 0.2536,-6.269 -0.8056,-10.7392 -0.2658,-1.1216 -0.409,-2.1134 -0.3183,-2.2041 0.277,-0.277 1.3528,2.1071 2.0024,4.4376 2.015,7.229 0.4174,16.0669 -4.0314,22.3013 -1.2146,1.7022 -3.3346,3.6841 -3.6275,3.3912 -0.068,-0.068 0.4162,-1.1955 1.0763,-2.5053 1.4659,-2.9088 2.8032,-7.0021 3.2949,-10.0852 0.5116,-3.2077 0.2255,-10.5048 -0.5288,-13.4846 -0.5359,-2.1174 -2.0501,-5.2908 -2.3712,-4.9697 -0.076,0.077 0.1982,1.2009 0.6105,2.4986 0.4124,1.2977 0.8919,3.1604 1.0656,4.1395 0.4031,2.2716 0.4058,6.5198 0.01,8.604 -0.1707,0.8887 -0.4407,2.9654 -0.5999,4.6148 -0.1614,1.6711 -0.6314,4.025 -1.0616,5.3168 -1.4086,4.2298 -5.3148,9.7506 -8.8234,12.4705 -5.634,4.3674 -8.4047,6.809 -8.4047,7.4061 0,0.1954 -1.0179,1.1525 -2.262,2.127 -1.244,0.9744 -2.522,2.2125 -2.8398,2.7512 -0.3179,0.5387 -0.7256,0.9795 -0.9061,0.9795 -0.1804,0 -0.9469,0.4725 -1.7032,1.05 -0.7564,0.5775 -1.5428,1.05 -1.7476,1.05 -0.4374,0 -3.2575,2.9619 -5.7086,5.9956 -1.0528,1.303 -1.8086,2.0052 -1.9362,1.7987 -0.3827,-0.6192 -2.1512,1.5651 -3.9582,4.8888 -0.7582,1.3947 -1.1113,1.8462 -0.9909,1.2669 z m 22.9526,-23.8553 c 1.2375,-1.0475 2.8575,-2.5873 3.6,-3.4219 1.1681,-1.3129 1.0078,-1.2146 -1.19,0.7299 -2.6486,2.3434 -6.7149,6.2525 -5.41,5.2009 0.4125,-0.3325 1.7625,-1.4615 3,-2.5089 z m -26.5855,-29.8603 c 0.1024,-0.267 0.052,-0.3874 -0.1179,-0.2823 -0.1631,0.1008 -0.2966,0.3103 -0.2966,0.4656 0,0.4315 0.215,0.3364 0.4145,-0.1833 z m 5.9157,-12.1344 c 0.982,-1.4025 2.1368,-2.9887 2.5661,-3.525 1.1262,-1.4066 0.2969,-1.2441 -1.7165,0.3366 -0.9186,0.7211 -2.1752,2.072 -2.7924,3.0019 -1.1714,1.7648 -2.5971,4.7392 -2.574,5.3701 0.02,0.5465 2.4868,-2.2844 4.5168,-5.1836 z m 6.5698,59.0051 c 0,-0.41 1.5549,-3.3388 2.2988,-4.3301 0.6794,-0.9052 1.3163,-1.2756 1.2899,-0.75 -0.015,0.3055 -3.5887,5.3638 -3.5887,5.0801 z m -12.824,-3.2951 c -2.6583,-3.5366 -6.8869,-7.2991 -7.5067,-6.6793 -0.099,0.099 -0.02,0.339 0.1757,0.5343 0.1953,0.1952 0.3501,0.5643 0.3442,0.82 -0.01,0.308 -0.2599,0.1611 -0.7485,-0.435 -0.9411,-1.1481 -0.9292,-1.0022 0.159,1.9491 0.8139,2.2076 1.508,5.7009 1.1327,5.7009 -0.083,0 -0.582,-1.2067 -1.1095,-2.6816 -0.9086,-2.5399 -2.7042,-5.7464 -3.6534,-6.5239 -0.2387,-0.1955 -1.8445,-0.643 -3.5684,-0.9943 -3.464,-0.7059 -6.3767,-1.6039 -7.4544,-2.2981 -0.6804,-0.4383 -0.7115,-0.7333 -0.2062,-1.9574 0.2929,-0.7096 -2.0473,-2.4046 -2.9924,-2.1674 -0.5429,0.1362 -0.7319,9e-4 -0.9761,-0.6997 -0.1665,-0.4778 -1.0371,-1.6694 -1.9345,-2.6481 -3.4012,-3.7094 -5.2617,-7.8092 -6.0969,-13.4357 -0.4613,-3.1075 -0.4793,-3.8834 -0.1428,-6.15 0.2119,-1.4266 0.5276,-2.9072 0.7016,-3.2903 0.2408,-0.53 0.2193,-0.7565 -0.09,-0.9477 -0.8168,-0.5048 2.3983,-5.8075 4.5353,-7.4799 0.5186,-0.4059 1.767,-1.1822 2.7741,-1.7251 2.8122,-1.516 1.3127,-1.1756 -2.1438,0.4866 -1.6912,0.8133 -3.075,1.3579 -3.075,1.2101 0,-0.4708 2.723,-2.1628 5.0819,-3.1576 4.0056,-1.6894 5.6081,-1.8327 11.2681,-1.0081 4.3346,0.6315 7.5431,1.4419 8.85,2.2354 0.7469,0.4535 0.7457,0.4546 -0.3,0.2621 -1.0247,-0.1886 -0.9938,-0.1412 1.285,1.973 1.2843,1.1914 2.5407,2.564 2.7921,3.0501 l 0.457,0.8838 -0.7497,-0.4913 -0.7498,-0.4912 0.3577,0.9509 c 0.3313,0.8807 0.2968,0.9996 -0.4673,1.6094 -0.4537,0.3622 -0.8265,0.9235 -0.8283,1.2473 0,0.4424 -0.3615,0.1841 -1.4448,-1.0396 -1.0879,-1.2289 -1.5737,-1.5775 -1.9805,-1.4214 -0.3276,0.1257 -0.9211,-0.029 -1.5131,-0.3952 -1.8437,-1.1395 -3.3973,-1.4905 -6.7607,-1.5274 -3.9514,-0.043 -5.222,0.454 -7.793,3.051 -3.8997,3.9391 -4.9555,9.5053 -2.7123,14.2989 2.5102,5.3643 6.9452,9.8741 17.4077,17.7012 2.8875,2.1602 5.7225,4.3577 6.3,4.8833 0.5775,0.5256 1.6238,1.3519 2.325,1.8362 0.8631,0.5961 1.275,1.0992 1.275,1.5574 0,0.3722 0.4054,1.3161 0.901,2.0975 0.8994,1.4182 1.799,3.3352 1.799,3.8334 0,0.8565 -1.0872,-0.083 -2.924,-2.5266 z m -15.8455,-11.9535 c -1.2848,-1.3415 -3.6074,-2.9565 -4.2517,-2.9565 -0.8865,0 -4.255,-1.8351 -5.0053,-2.7268 -0.8808,-1.0468 -0.8494,-1.3955 0.081,-0.8975 1.2187,0.6522 0.9801,0.2743 -1.3766,-2.1805 -1.3226,-1.3776 -3.0287,-3.4349 -3.7913,-4.5718 -1.6257,-2.4233 -1.8249,-1.8751 -0.3667,1.0091 1.9318,3.821 6.7761,9.5444 8.7228,10.3056 0.499,0.1952 1.6365,0.8272 2.5278,1.4047 1.6307,1.0563 4.2673,2.2101 4.5099,1.9735 0.072,-0.07 -0.4007,-0.6819 -1.05,-1.3598 z m -15.1608,-18.9132 c -0.6179,-1.1545 -0.7003,-5.5723 -0.1443,-7.7406 0.2746,-1.071 0.6214,-2.0695 0.7708,-2.2189 0.1493,-0.1493 0.076,0.3772 -0.1624,1.17 -0.2645,0.8789 -0.419,2.5647 -0.3959,4.3189 l 0.038,2.8773 0.2665,-2.1 c 0.691,-5.4454 2.1406,-8.7179 5.1677,-11.6661 1.5215,-1.4818 1.9119,-2.0013 1.3807,-1.837 -1.0785,0.3336 -2.4095,1.0422 -3.4672,1.8461 -0.5096,0.3873 -0.9933,0.6373 -1.0749,0.5557 -0.256,-0.256 -2.0426,2.1785 -2.8027,3.8191 -0.4,0.8634 -0.9579,2.5481 -1.2398,3.7439 -0.4236,1.7969 -0.4528,2.4328 -0.1683,3.6655 0.4094,1.7736 1.5147,4.2228 1.9057,4.2228 0.1526,0 0.1194,-0.2955 -0.074,-0.6567 z m 21.4803,-18.735 c -1.0491,-0.8265 -4.7547,-2.5083 -5.5265,-2.5083 -1.0181,0 -0.4638,0.4162 1.1765,0.8833 0.7425,0.2114 2.0925,0.7677 3,1.2361 1.8796,0.9703 2.2082,1.0649 1.35,0.3889 z m 20.5072,46.1667 c 0.8541,-1.1781 4.5025,-4.6588 5.7428,-5.4788 0.5775,-0.3818 -0.57,0.8801 -2.55,2.8043 -1.98,1.9241 -3.6429,3.4987 -3.6954,3.499 -0.053,3e-4 0.1737,-0.3707 0.5026,-0.8245 z"
         id="path5217"
         inkscape:connector-curvature="0" />
      <path
         style="fill:#8f1e15;fill-opacity:1"
         d="m 1205.2219,1445.9138 c 0,-0.3397 -0.135,-0.5343 -0.3,-0.4323 -0.7879,0.4869 -0.1185,-0.7241 1.6568,-2.9977 2.1572,-2.7625 8.2893,-8.5523 9.0581,-8.5523 0.4443,0 1.2851,-1.0348 1.2851,-1.5815 0,-0.2664 0.7096,-1.3358 1.577,-2.3764 0.8673,-1.0407 2.3571,-2.926 3.3107,-4.1896 2.0813,-2.7581 4.4088,-4.5755 2.5919,-2.0238 -2.185,3.0685 3.0488,-2.1675 5.751,-5.7535 1.9554,-2.5948 3.9314,-7.4765 4.4939,-11.1016 0.583,-3.7575 -0.6297,-10.0269 -2.8827,-14.9032 -0.9749,-2.1101 -1.0772,-2.7704 -0.4291,-2.7704 0.3512,0 1.5066,2.2871 2.3943,4.7395 0.3908,1.0797 0.7965,1.777 0.9465,1.627 0.2799,-0.2799 -0.2157,-3.0965 -0.7244,-4.1165 -0.2664,-0.5342 -0.2495,-0.5507 0.1538,-0.15 0.5997,0.5957 1.8367,4.3971 2.3325,7.1675 0.4835,2.7016 0.8284,2.1811 0.8731,-1.3175 0.028,-2.178 0.071,-2.3461 0.471,-1.8177 0.5651,0.7471 0.5685,0.3449 0.01,-0.686 -0.4751,-0.8705 -1.6655,-3.635 -1.6655,-3.8677 0,-0.08 0.2639,0.1736 0.5864,0.5632 0.5178,0.6254 0.4999,0.4802 -0.1532,-1.2418 -1.8731,-4.9389 -3.866,-7.7492 -7.0084,-9.8832 -4.8169,-3.2711 -10.1606,-4.1352 -15.1675,-2.4527 -2.8643,0.9625 -4.3811,1.8993 -6.5073,4.0189 -2.8556,2.8467 -2.4855,3.4837 0.7407,1.2746 5.3508,-3.6637 9.0574,-4.7392 13.9429,-4.0457 3.5059,0.4976 6.0648,1.8185 8.4382,4.3557 1.648,1.7617 2.2479,2.8324 1.5871,2.8324 -0.1327,0 -0.7064,-0.4861 -1.275,-1.0802 -1.4699,-1.5357 -4.2702,-3.3839 -6.2441,-4.121 -2.2096,-0.8251 -7.3212,-0.8242 -10.2154,0 -2.1196,0.6049 -2.778,1.2995 -1.2317,1.2995 1.0992,0 0.9779,0.4419 -0.2026,0.7382 -1.1729,0.2944 -3.9901,1.7139 -3.9901,2.0105 0,0.1382 0.2363,0.2578 0.525,0.2657 0.2888,0.01 -0.285,0.4317 -1.275,0.9416 -2.2987,1.1841 -4.8406,3.1387 -6.4536,4.9625 -1.3872,1.5685 -3.376,4.4121 -3.6963,5.285 -0.1117,0.3044 -0.4413,0.6157 -0.7324,0.6919 -0.5653,0.1478 -1.8677,1.855 -1.8677,2.4482 0,0.196 -0.143,0.3564 -0.3177,0.3564 -0.1747,0 -0.2398,-0.126 -0.1447,-0.28 0.095,-0.1539 0.2887,-0.8992 0.4301,-1.6561 0.2096,-1.1216 0.1701,-1.4248 -0.2132,-1.6394 -0.4243,-0.2374 -0.4181,-0.4347 0.064,-2.0188 0.7405,-2.4341 0.9448,-3.8419 0.5193,-3.5789 -0.7831,0.4839 -0.2223,-0.7964 1.4816,-3.3828 2.3371,-3.5476 6.723,-8.1447 9.5182,-9.9765 2.3608,-1.5471 5.8392,-3.0099 8.836,-3.7158 2.5579,-0.6025 7.283,-0.9268 7.5362,-0.5171 0.1262,0.2042 -0.5259,0.3905 -1.8318,0.5234 -2.5029,0.2548 -5.2207,0.8566 -5.9669,1.3214 -0.5347,0.333 -0.5329,0.3423 0.039,0.2009 3.3822,-0.8365 5.8562,-1.1607 8.85,-1.1596 l 3.45,0 3.1586,1.5252 c 4.777,2.3068 7.8822,5.3659 10.2739,10.1216 2.0121,4.0011 2.3727,5.6791 2.5371,11.8084 0.099,3.7009 0.242,5.3596 0.4319,5.0202 0.5152,-0.9205 0.8095,-6.7622 0.4976,-9.8753 -0.1638,-1.6353 -0.2319,-3.0392 -0.1512,-3.1199 0.081,-0.081 0.3904,0.6397 0.6885,1.6006 0.4175,1.3463 0.5417,2.7455 0.5409,6.0973 0,6.5214 -1.058,10.1218 -4.4897,15.3 -1.3102,1.977 -3.3061,4.1315 -3.5766,3.861 -0.082,-0.082 0.387,-1.2131 1.0409,-2.5148 1.3724,-2.7318 2.4812,-5.9358 3.1651,-9.1462 0.568,-2.6659 0.6456,-8.8805 0.1453,-11.6349 -0.1882,-1.0367 -0.4027,-2.3568 -0.4765,-2.9335 -0.074,-0.5767 -0.4647,-1.7005 -0.8684,-2.4973 -0.7545,-1.4888 -2.2481,-3.4536 -2.4625,-3.2392 -0.066,0.066 0.2846,1.1323 0.7797,2.3688 1.2836,3.2057 1.9244,7.2392 1.6817,10.5861 -0.1077,1.485 -0.2082,3.105 -0.2234,3.6 -0.1137,3.7031 -0.6343,7.4725 -1.314,9.5133 -1.4094,4.2322 -5.3148,9.7524 -8.8242,12.4729 -5.8406,4.5276 -8.0535,6.4901 -8.4276,7.4739 -0.1382,0.3636 -0.6284,0.8589 -1.0892,1.1006 -1.083,0.568 -3.4885,2.8373 -3.9673,3.7426 -0.2535,0.4792 -0.5551,0.6554 -0.9467,0.5529 -0.3161,-0.083 -0.5064,-0.04 -0.4229,0.095 0.1379,0.2231 -1.442,1.62 -2.551,2.2556 -0.3958,0.2269 -0.3978,0.1878 -0.016,-0.3246 1.1719,-1.5743 -3.3356,3.091 -5.4516,5.6424 -1.3342,1.6087 -2.4723,2.925 -2.529,2.925 -0.057,0 -0.1031,-0.278 -0.1031,-0.6177 z m 14.4,-13.9017 c 0,-0.2307 1.2838,-1.5073 2.853,-2.8369 4.6404,-3.9323 11.7257,-11.7245 13.815,-15.1937 0.7382,-1.2256 0.1015,-0.5799 -0.8626,0.8749 -1.6071,2.4252 -5.241,6.2799 -9.14,9.6954 -2.216,1.9414 -4.117,3.5972 -4.2242,3.6797 -0.1073,0.082 -0.8355,0.8734 -1.6182,1.7574 -1.3564,1.5323 -1.775,2.4426 -1.123,2.4426 0.165,0 0.3,-0.1887 0.3,-0.4194 z m 20.0122,-30.2521 c -0.072,-0.3732 -0.1332,-0.1385 -0.1365,0.5215 0,0.66 0.055,0.9653 0.1304,0.6785 0.075,-0.2868 0.078,-0.8268 0.01,-1.2 z m -42.5122,-7.1285 c 0,-0.165 -0.06,-0.3 -0.1323,-0.3 -0.073,0 -0.2157,0.135 -0.3177,0.3 -0.102,0.165 -0.042,0.3 0.1323,0.3 0.1747,0 0.3177,-0.135 0.3177,-0.3 z m 41.1,-1.2 c -0.3367,-0.66 -0.6797,-1.2 -0.7622,-1.2 -0.083,0 0.1255,0.54 0.4622,1.2 0.3367,0.66 0.6797,1.2 0.7622,1.2 0.082,0 -0.1255,-0.54 -0.4622,-1.2 z m -38.85,-2.1509 c 0.825,-1.169 2.2428,-3.222 3.1507,-4.5622 0.9079,-1.3403 2.158,-3.0993 2.778,-3.9089 0.62,-0.8096 1.0771,-1.5222 1.0159,-1.5834 -0.3532,-0.3532 -1.9916,0.7739 -3.892,2.6773 -1.6899,1.6927 -2.523,2.8577 -3.7385,5.2275 -1.5527,3.027 -1.9091,4.3124 -1.1891,4.2878 0.2063,-0.01 1.05,-0.9692 1.875,-2.1381 z m 9.75,54.256 c 0,-0.41 1.5549,-3.3388 2.2988,-4.3301 0.6794,-0.9052 1.3163,-1.2756 1.2899,-0.75 -0.015,0.3055 -3.5887,5.3638 -3.5887,5.0801 z m -12.6391,-3.852 c -2.9196,-3.2684 -5.6233,-5.8947 -6.6041,-6.4149 -0.4362,-0.2314 -1.2021,-0.8296 -1.7019,-1.3294 -1.127,-1.1271 -1.5618,-1.1509 -1.5312,-0.084 0.013,0.4538 0.092,0.6562 0.175,0.45 0.2513,-0.6228 0.5552,-0.4368 1.5504,0.949 1.3404,1.8665 1.1824,2.3921 -0.2332,0.776 l -1.1825,-1.35 1.1741,2.85 c 0.6457,1.5675 1.1691,3.1875 1.163,3.6 l -0.011,0.75 -0.3295,-0.75 c -1.7277,-3.9324 -3.1406,-6.0833 -4.4363,-6.7533 -0.4445,-0.2299 -2.1813,-0.6977 -3.8595,-1.0398 -4.9953,-1.0179 -7.5606,-2.2004 -6.6814,-3.0796 0.191,-0.191 0.3473,-0.5903 0.3473,-0.8873 0,-0.7462 0.7599,-0.6753 1.895,0.1769 2.152,1.6155 5.9058,3.1146 5.9047,2.3581 -9e-4,-0.5318 -3.8744,-4.424 -5.3914,-5.4173 -4.1531,-2.7192 -8.3246,-6.6428 -10.5083,-9.8839 -1.7873,-2.6525 -2.084,-1.816 -0.4819,1.3587 1.0186,2.0183 4.1336,6.439 5.1055,7.2457 0.7912,0.6565 1.4862,2.1208 1.0091,2.1259 -0.2105,0 -0.672,0.082 -1.0257,0.1766 -0.532,0.1428 -0.7038,-0.012 -0.9959,-0.897 -0.1941,-0.5882 -0.9644,-1.6464 -1.7117,-2.3516 -3.1188,-2.9428 -5.4665,-8.0894 -6.2643,-13.7321 -0.5023,-3.5533 -0.5032,-3.8916 -0.018,-6.45 0.2819,-1.485 0.5581,-3.0468 0.6139,-3.4707 0.2001,-1.5205 1.7129,-4.262 3.2471,-5.8842 2.4661,-2.6074 5.1313,-3.9892 9.9716,-5.1698 1.1861,-0.2893 1.1826,-0.2909 -0.3,-0.1389 -3.1678,0.3247 -4.904,0.8143 -7.875,2.2209 -1.6912,0.8007 -3.075,1.3356 -3.075,1.1887 0,-0.8432 5.8681,-3.7994 8.7705,-4.4184 1.6686,-0.3559 6.1242,-0.2374 6.627,0.1762 0.1939,0.1595 1.0275,0.3779 1.8525,0.4853 2.4486,0.3187 4.35,0.8013 4.35,1.104 0,0.1557 0.1693,0.2443 0.3761,0.1968 0.962,-0.2209 6.082,4.0353 7.0078,5.8256 l 0.4448,0.8601 -1.2894,-0.8013 -1.2893,-0.8013 0.8519,0.908 c 0.898,0.9572 0.8399,1.5629 -0.2355,2.4554 -0.2565,0.2129 -0.4679,0.6743 -0.4697,1.0253 0,0.5259 -0.2537,0.3675 -1.425,-0.8994 -0.7819,-0.8457 -2.0967,-1.9472 -2.9217,-2.4478 -2.7422,-1.6638 -6.2986,-3.3661 -6.4,-3.0632 -0.055,0.1643 -0.5017,0.2987 -0.9927,0.2987 -0.491,0 -0.8238,0.1114 -0.7397,0.2476 0.084,0.1362 -0.6534,0.4892 -1.639,0.7845 -3.9482,1.1826 -7.3144,4.4527 -8.6853,8.4373 -0.8639,2.511 -0.8145,6.6082 0.1065,8.8471 2.2732,5.5254 6.9219,10.3483 17.592,18.2517 6.3717,4.7194 9.3183,7.3959 10.5374,9.5713 1.6577,2.9583 2.1506,3.9807 1.9943,4.137 -0.083,0.083 -1.1465,-0.9622 -2.3626,-2.3234 z m -28.2095,-24.772 c -1.0866,-1.6689 -1.9636,-4.6923 -2.1991,-7.5811 -0.4668,-5.7243 2.2902,-11.87 6.551,-14.6034 0.6344,-0.407 1.0898,-0.8035 1.0122,-0.8811 -0.2644,-0.2644 -3.3411,1.073 -4.7057,2.0455 l -1.3598,0.9691 0.8747,-1.1901 0.8748,-1.19 -0.9752,0.9 c -3.7785,3.4874 -6.1852,11.1242 -4.6594,14.7846 0.4281,1.027 1.1913,2.2988 3.9672,6.6108 0.5649,0.8775 1.101,1.5215 1.1914,1.4311 0.09,-0.09 -0.1671,-0.6733 -0.5721,-1.2954 z m -2.9382,-5.4048 c -0.6521,-1.4024 -0.7538,-5.6661 -0.1878,-7.8736 0.2746,-1.071 0.6214,-2.0695 0.7708,-2.2189 0.1493,-0.1493 0.076,0.3772 -0.1624,1.17 -0.5023,1.6691 -0.5686,5.6535 -0.1324,7.9538 0.3481,1.8353 0.2571,2.1412 -0.2882,0.9687 z m 21.4368,-18.8601 c -0.33,-0.2556 -1.3975,-0.8715 -2.3722,-1.3686 -1.3181,-0.6723 -1.664,-0.9724 -1.35,-1.1711 0.2778,-0.1759 -0.1292,-0.2689 -1.1895,-0.2719 -1.3453,0 -1.5543,0.065 -1.2643,0.414 0.191,0.2303 0.785,0.5007 1.3199,0.6011 0.5348,0.1003 1.9138,0.6444 3.0643,1.2089 2.3573,1.1569 2.6512,1.2533 1.7918,0.5876 z m -12.94,33.7811 c -1.6427,-0.7834 -3.6531,-2.5542 -3.3003,-2.907 0.2736,-0.2736 3.3842,1.4526 4.6903,2.6029 1.5998,1.4089 1.1383,1.5099 -1.39,0.3041 z"
         id="path5215"
         inkscape:connector-curvature="0" />
      <path
         style="fill:#8f1e15;fill-opacity:1"
         d="m 1204.6219,1445.3276 c 0,-0.5766 3.7338,-5.1514 5.7942,-7.0993 1.9527,-1.8459 3.5058,-3.0333 3.5058,-2.6801 0,0.1022 -1.0969,1.3665 -2.4376,2.8095 -1.3408,1.4431 -3.0172,3.4338 -3.7256,4.4238 -1.2358,1.7272 -3.1368,3.2702 -3.1368,2.5461 z m 4.5,0.209 c 0,-0.41 1.5549,-3.3388 2.2988,-4.3301 0.6794,-0.9052 1.3163,-1.2756 1.2899,-0.75 -0.015,0.3055 -3.5887,5.3638 -3.5887,5.0801 z m -13.0915,-4.3117 c -2.2849,-2.6504 -5.1498,-5.4237 -6.1517,-5.9552 -0.4362,-0.2314 -1.2021,-0.8296 -1.7019,-1.3294 -1.127,-1.1271 -1.5618,-1.1509 -1.5312,-0.084 0.013,0.4538 0.092,0.6562 0.175,0.45 0.2513,-0.6228 0.5552,-0.4368 1.5504,0.949 1.3404,1.8665 1.1824,2.3921 -0.2332,0.776 l -1.1825,-1.35 1.1741,2.85 c 0.6457,1.5675 1.1691,3.1875 1.163,3.6 l -0.011,0.75 -0.3295,-0.75 c -1.7277,-3.9324 -3.1406,-6.0833 -4.4363,-6.7533 -0.4445,-0.2299 -2.1813,-0.6977 -3.8595,-1.0398 -4.9953,-1.0179 -7.5606,-2.2004 -6.6814,-3.0796 0.191,-0.191 0.3473,-0.5903 0.3473,-0.8873 0,-0.7462 0.7599,-0.6753 1.895,0.1769 2.152,1.6155 5.9058,3.1146 5.9047,2.3581 -9e-4,-0.5318 -3.8744,-4.424 -5.3914,-5.4173 -7.2656,-4.7572 -12.4571,-11.081 -13.3465,-16.2577 l -0.1804,-1.05 0.4748,1.05 c 0.4389,0.9705 1.3051,2.3966 3.9759,6.5454 0.5649,0.8775 1.101,1.5215 1.1914,1.4311 0.09,-0.09 -0.2026,-0.7187 -0.651,-1.3963 -1.1944,-1.8048 -2.0722,-6.5175 -1.8684,-10.0302 0.2967,-5.1124 2.5083,-9.416 6.1135,-11.8965 0.7285,-0.5012 1.2643,-0.9716 1.1906,-1.0453 -0.2573,-0.2573 -3.3492,1.0914 -4.6595,2.0323 -1.2817,0.9205 -1.3059,0.9256 -0.8125,0.1727 0.575,-0.8776 1.9506,-1.9857 3.3769,-2.7203 1.1354,-0.5848 7.16,-0.9404 8.3388,-0.4922 1.0335,0.3929 0.938,0.8993 -0.1696,0.8993 -0.5047,0 -0.8488,0.1114 -0.7647,0.2476 0.084,0.1362 -0.6534,0.4892 -1.639,0.7845 -3.5798,1.0723 -6.8481,3.9881 -8.3983,7.4925 -0.954,2.1569 -1.3475,5.241 -0.9476,7.4277 0.4349,2.3776 2.3104,6.1351 4.3527,8.7202 0.8605,1.0893 1.8346,2.3579 2.1646,2.8191 1.3424,1.876 8.1105,8.7837 8.768,8.9487 0.4226,0.106 0.6227,0.313 0.4979,0.5148 -0.1186,0.1919 -0.075,0.2549 0.1014,0.146 0.6496,-0.4015 5.6071,2.5631 8.6695,5.1844 0.9698,0.83 1.9725,1.5104 2.2282,1.5118 0.648,0 1.17,0.5928 0.9752,1.1004 -0.09,0.2336 0.037,0.6559 0.2818,0.9385 0.7114,0.8219 2.1155,3.3763 1.9479,3.5439 -0.084,0.084 -0.9443,-0.7649 -1.9114,-1.8867 z m 17.5915,-3.5691 c 1.0528,-1.2031 1.5802,-1.6056 2.1,-1.6026 0.4722,0 -1.1691,1.5638 -2.25,2.1399 -0.4994,0.2662 -0.4743,0.1762 0.15,-0.5373 z m 2.7902,-3.6909 c 0.052,-0.3399 0.1878,-0.7114 0.3021,-0.8257 0.1142,-0.1142 0.2077,-0.437 0.2077,-0.7172 0,-0.7043 1.0661,-1.9936 2.0309,-2.456 0.4413,-0.2115 1.4348,-1.3419 2.2078,-2.5121 0.9533,-1.4431 1.7489,-2.2905 2.4731,-2.6342 1.0834,-0.5141 4.8461,-4.5027 6.8283,-7.2382 2.2134,-3.0546 3.7372,-7.0977 4.3013,-11.4123 0.4193,-3.2081 -0.9717,-9.7782 -2.9996,-14.1673 -0.9855,-2.1331 -1.0786,-2.7704 -0.4046,-2.7704 0.7476,0 4.0577,8.7397 4.3745,11.55 0.093,0.825 0.2646,1.6814 0.3813,1.903 0.3413,0.6483 1.2076,-3.4814 1.2173,-5.803 0.01,-1.9118 0.048,-2.0478 0.4492,-1.5177 0.5651,0.7471 0.5685,0.3449 0.01,-0.686 -0.4751,-0.8705 -1.6655,-3.635 -1.6655,-3.8677 0,-0.08 0.2639,0.1736 0.5864,0.5632 0.5178,0.6254 0.4999,0.4802 -0.1532,-1.2418 -1.8731,-4.9389 -3.866,-7.7492 -7.0084,-9.8832 -3.2258,-2.1906 -6.8324,-3.3168 -10.6218,-3.3168 l -1.7867,0 1.1668,-0.8204 c 1.1023,-0.775 1.3495,-0.8199 4.4669,-0.8123 7.3182,0.018 12.5711,2.5392 14.7952,7.1016 2.6613,5.4593 3.8497,10.5493 3.5211,15.0811 -0.1077,1.485 -0.2082,3.105 -0.2234,3.6 -0.1137,3.7031 -0.6343,7.4725 -1.314,9.5133 -1.4094,4.2322 -5.3148,9.7524 -8.8242,12.4729 -5.844,4.5303 -8.0535,6.4901 -8.4284,7.476 -0.1386,0.3648 -0.7976,0.9415 -1.4642,1.2816 -2.1332,1.0883 -1.4294,-0.048 1.6409,-2.6501 4.6404,-3.9323 11.7257,-11.7245 13.815,-15.1937 0.7382,-1.2256 0.1015,-0.5799 -0.8626,0.8749 -1.6169,2.4399 -5.2491,6.2865 -9.155,9.6954 -2.2243,1.9414 -4.5293,4.051 -5.1223,4.6882 -0.5929,0.6372 -1.3684,1.27 -1.7231,1.4062 -0.3618,0.1389 -1.0205,1.0031 -1.5,1.968 -0.8777,1.7661 -1.6885,2.489 -1.5148,1.3507 z m 23.222,-32.2049 c -0.072,-0.3732 -0.1332,-0.1385 -0.1365,0.5215 0,0.66 0.055,0.9653 0.1304,0.6785 0.075,-0.2868 0.078,-0.8268 0.01,-1.2 z m -1.4122,-8.3285 c -0.3367,-0.66 -0.6797,-1.2 -0.7622,-1.2 -0.083,0 0.1255,0.54 0.4622,1.2 0.3367,0.66 0.6797,1.2 0.7622,1.2 0.082,0 -0.1255,-0.54 -0.4622,-1.2 z m -68.9175,31.8612 c -2.4271,-2.4079 -4.5258,-5.4602 -5.7787,-8.4043 -1.0252,-2.4094 -1.1572,-3.4515 -0.4183,-3.3039 0.2871,0.057 0.9608,1.2005 1.6483,2.7969 1.3344,3.0987 3.2091,5.9711 5.3634,8.218 1.8025,1.88 2.3272,2.7321 1.6821,2.7321 -0.243,0 -1.3665,-0.9174 -2.4968,-2.0388 z m 4.5275,1.1361 c -1.6427,-0.7834 -3.6531,-2.5542 -3.3003,-2.907 0.2736,-0.2736 3.3842,1.4526 4.6903,2.6029 1.5998,1.4089 1.1383,1.5099 -1.39,0.3041 z m 66.2938,-12.4473 c 0.3117,-1.2847 2.2085,-6.4377 2.3264,-6.3198 0.5547,0.5547 0.4416,-12.0514 -0.1355,-15.1034 -0.2304,-1.2187 -0.3253,-2.5661 -0.2109,-2.994 0.1825,-0.6823 0.3258,-0.4701 1.1622,1.7201 0.8218,2.1521 0.9538,2.8795 0.9522,5.2477 0,2.59 -0.6216,7.8294 -1.0622,8.9777 -0.1129,0.2943 -0.061,0.5217 0.1192,0.5217 0.532,0 1.6058,-4.1696 1.8543,-7.2 0.1326,-1.6161 0.1054,-4.1922 -0.063,-5.9502 -0.163,-1.7051 -0.2302,-3.1664 -0.1494,-3.2472 0.081,-0.081 0.3909,0.6392 0.689,1.6002 0.4175,1.3463 0.5417,2.7454 0.5409,6.0972 0,5.4046 -0.6769,8.444 -2.7525,12.3806 -1.4116,2.6772 -3.5673,5.4909 -3.271,4.2694 z m -74.7906,-2.4737 c -0.6521,-1.4024 -0.7538,-5.6661 -0.1878,-7.8736 0.2746,-1.071 0.6214,-2.0695 0.7708,-2.2189 0.1493,-0.1493 0.076,0.3772 -0.1624,1.17 -0.5023,1.6691 -0.5686,5.6535 -0.1324,7.9538 0.3481,1.8353 0.2571,2.1412 -0.2882,0.9687 z m 24.8947,-13.4136 c -0.3526,-0.5705 -1.5951,-1.9205 -2.761,-3 -2.3366,-2.1633 -2.1448,-2.5508 0.5884,-1.1888 1.7477,0.871 4.5647,3.2696 4.5647,3.8869 0,0.3851 -1.0987,1.3392 -1.5423,1.3392 -0.1148,0 -0.4972,-0.4668 -0.8498,-1.0373 z m -26.656,-0.4992 c 0.8844,-1.8306 3.3879,-4.344 5.6435,-5.6658 1.799,-1.0542 3.2763,-1.5972 6.4546,-2.3724 1.1861,-0.2893 1.1826,-0.2909 -0.3,-0.1389 -3.1678,0.3247 -4.904,0.8143 -7.875,2.2209 -1.6912,0.8007 -3.075,1.3356 -3.075,1.1887 0,-0.8432 5.8681,-3.7994 8.7705,-4.4184 1.6686,-0.3559 6.1242,-0.2374 6.627,0.1762 0.1939,0.1595 1.0275,0.3779 1.8525,0.4853 2.4486,0.3187 4.35,0.8013 4.35,1.104 0,0.1557 0.1693,0.2443 0.3761,0.1968 0.962,-0.2209 6.082,4.0353 7.0078,5.8256 l 0.4448,0.8601 -1.2894,-0.8182 c -3.9132,-2.4832 -6.2926,-3.9259 -7.9967,-4.8489 -1.3772,-0.7459 -1.7942,-1.1048 -1.5,-1.2912 0.8393,-0.5318 -2.7231,-0.2515 -5.9915,0.4714 -4.7088,1.0415 -9.0968,3.307 -12.0055,6.1985 -2.1034,2.0909 -2.1052,2.0919 -1.4937,0.8263 z m 33.8481,-0.6438 c 0,-1.4624 3.2218,-5.8682 6.5003,-8.8892 2.2046,-2.0314 5.1982,-3.6796 5.4497,-3.0005 0.055,0.1485 0.325,0.2765 0.6,0.2844 0.275,0.01 -0.31,0.4317 -1.3,0.9416 -4.1179,2.1212 -7.6391,5.6637 -10.2214,10.2833 -0.403,0.7208 -1.0286,0.9522 -1.0286,0.3804 z m -10.6866,-0.6094 c -0.5151,-0.3632 -2.0306,-1.2003 -3.3677,-1.8603 -2.5378,-1.2526 -2.9486,-1.65 -1.7062,-1.65 1.9111,0 6.3667,2.441 6.8754,3.7667 0.2491,0.6492 -0.7106,0.5126 -1.8015,-0.2564 z m 8.5964,-0.4353 c 0.01,-0.2888 0.271,-1.2675 0.5902,-2.175 0.6337,-1.8015 0.775,-3.1435 0.3,-2.85 -0.7458,0.461 -0.1536,-0.8668 1.5192,-3.406 2.3371,-3.5476 6.723,-8.1447 9.5182,-9.9765 2.3608,-1.5471 5.8392,-3.0099 8.836,-3.7158 2.5366,-0.5975 7.2831,-0.9266 7.5329,-0.5223 0.1214,0.1963 -0.5016,0.3846 -1.6818,0.5083 -5.2354,0.5488 -8.3925,2.0024 -13.4623,6.1983 -0.7326,0.6063 -1.8137,1.1764 -2.4474,1.2905 -0.8811,0.1587 -1.6568,0.7217 -3.4642,2.514 -1.8731,1.8576 -2.6342,2.9061 -3.8897,5.3589 -0.8585,1.6771 -1.5609,3.3396 -1.5609,3.6943 0,0.8196 -1.1877,3.6063 -1.5369,3.6063 -0.1447,0 -0.2587,-0.2362 -0.2533,-0.525 z m 5.6902,-6.2175 c 0,-0.7016 3.3959,-4.4456 3.9148,-4.3161 0.2854,0.071 -0.3136,0.8694 -1.7398,2.3187 -1.1962,1.2155 -2.175,2.1144 -2.175,1.9974 z m 30.2839,-4.5377 c -1.4717,-1.5376 -4.2721,-3.3849 -6.2441,-4.119 -1.3388,-0.4983 -2.3441,-0.6249 -4.8398,-0.6094 -3.6581,0.023 -5.7894,0.5156 -9.005,2.083 -1.2348,0.6019 -2.515,1.2125 -2.845,1.3569 -0.33,0.1445 -0.9375,0.4812 -1.35,0.7483 -0.5728,0.3709 -0.5374,0.2965 0.15,-0.3147 3.0154,-2.6814 7.2959,-4.8388 10.4784,-5.2811 5.3168,-0.739 9.9864,0.7952 13.3434,4.3838 1.648,1.7617 2.2479,2.8324 1.5871,2.8324 -0.1327,0 -0.7064,-0.4861 -1.275,-1.0802 z m 2.0778,-7.8189 c -0.3733,-0.4526 -0.3488,-0.4656 0.2633,-0.1395 0.6981,0.372 0.87,0.6386 0.4117,0.6386 -0.1448,0 -0.4485,-0.2246 -0.675,-0.4991 z m -6.781,-2.7088 c 0.2919,-0.076 0.6969,-0.071 0.9,0.011 0.2031,0.082 -0.036,0.1444 -0.5307,0.1383 -0.495,-0.01 -0.6612,-0.073 -0.3693,-0.1494 z"
         id="path5213"
         inkscape:connector-curvature="0" />
      <path
         style="fill:#8f1e15;fill-opacity:1"
         d="m 1209.1219,1445.5366 c 0,-0.41 1.5549,-3.3388 2.2988,-4.3301 0.6794,-0.9052 1.3163,-1.2756 1.2899,-0.75 -0.015,0.3055 -3.5887,5.3638 -3.5887,5.0801 z m 4.5,-7.8808 c 1.0528,-1.2031 1.5802,-1.6056 2.1,-1.6026 0.4722,0 -1.1691,1.5638 -2.25,2.1399 -0.4994,0.2662 -0.4743,0.1762 0.15,-0.5373 z m -25.5783,-1.7466 c -1.0874,-1.301 -1.386,-1.9777 -0.8726,-1.9777 0.3661,0 2.2143,2.6599 2.0956,3.0159 -0.056,0.167 -0.606,-0.3002 -1.223,-1.0382 z m -3.0511,-1.6894 c -1.1437,-1.1437 -2.0132,-2.1457 -1.9321,-2.2268 0.2437,-0.2437 2.6227,1.1483 3.0604,1.7907 0.3533,0.5186 1.1747,2.5763 1.0105,2.5316 -0.033,-0.01 -0.9951,-0.9518 -2.1388,-2.0955 z m -6.1706,-1.4659 c -4.7208,-1.0645 -5.3726,-1.4838 -4.6275,-2.9775 0.2593,-0.5197 0.5534,-0.9449 0.6536,-0.9449 0.1001,0 1.0015,0.5291 2.003,1.1757 1.0015,0.6467 2.5972,1.5523 3.5459,2.0125 2.818,1.367 2.3008,1.6081 -1.575,0.7342 z m 40.8,-0.7357 c 0,-0.234 1.2838,-1.5134 2.853,-2.843 4.5478,-3.8538 11.4679,-11.4381 13.7945,-15.1187 0.9329,-1.4758 0.2672,-0.8692 -0.8231,0.75 -1.1831,1.757 -4.1294,5.12 -4.3193,4.9301 -0.067,-0.067 0.6829,-1.6598 1.6673,-3.5388 0.9843,-1.879 2.1302,-4.4362 2.5464,-5.6829 0.986,-2.9529 1.9787,-9.4048 1.9907,-12.9384 0.01,-2.5231 0.052,-2.7383 0.45,-2.2127 0.5651,0.7471 0.5685,0.3449 0.01,-0.686 -0.4751,-0.8705 -1.6655,-3.635 -1.6655,-3.8677 0,-0.08 0.2776,0.1736 0.6169,0.5632 0.5075,0.5825 0.5654,0.6007 0.3266,0.1025 -0.1597,-0.3331 -0.5836,-1.4806 -0.942,-2.55 -0.9982,-2.9789 -2.3062,-5.0251 -4.8264,-7.5507 -1.6137,-1.6171 -2.3415,-2.5787 -2.4352,-3.2174 -0.1241,-0.845 -0.078,-0.8988 0.6382,-0.7429 1.6697,0.3636 4.7203,2.0874 6.0121,3.3973 3.7342,3.7865 6.1445,11.1974 5.565,17.1105 -0.1217,1.2424 -0.2255,2.6639 -0.2306,3.1589 -0.033,3.2235 -0.6092,7.452 -1.2957,9.5133 -1.4094,4.2322 -5.3148,9.7524 -8.8242,12.4729 -5.844,4.5303 -8.0535,6.4901 -8.4284,7.476 -0.3134,0.8244 -2.6763,2.1262 -2.6763,1.4745 z m 20.0122,-30.2582 c -0.072,-0.3732 -0.1332,-0.1385 -0.1365,0.5215 0,0.66 0.055,0.9653 0.1304,0.6785 0.075,-0.2868 0.078,-0.8268 0.01,-1.2 z m -1.4122,-8.3285 c -0.3367,-0.66 -0.6797,-1.2 -0.7622,-1.2 -0.083,0 0.1255,0.54 0.4622,1.2 0.3367,0.66 0.6797,1.2 0.7622,1.2 0.082,0 -0.1255,-0.54 -0.4622,-1.2 z m -64.39,32.9973 c -1.6427,-0.7834 -3.6531,-2.5542 -3.3003,-2.907 0.2736,-0.2736 3.3842,1.4526 4.6903,2.6029 1.5998,1.4089 1.1383,1.5099 -1.39,0.3041 z m -4.4634,-1.5232 c -1.0459,-1.0043 -2.5386,-2.7755 -3.3172,-3.936 -1.4482,-2.1584 -3.1067,-5.6725 -3.1213,-6.6131 -0.015,-0.9811 0.5085,-0.53 1.0448,0.9 1.3533,3.6083 3.3191,6.7747 5.9565,9.5941 0.9677,1.0345 1.6647,1.8809 1.549,1.8809 -0.1157,0 -1.066,-0.8217 -2.1118,-1.8259 z m -0.7928,-5.5991 c -1.8654,-1.9651 -4.3168,-6.0361 -4.0737,-6.7652 0.063,-0.19 0.4762,0.2926 0.9175,1.0724 0.4413,0.7798 1.1383,2.0129 1.5489,2.7402 0.4105,0.7273 1.2196,1.9423 1.798,2.7 0.5783,0.7577 1.0123,1.3776 0.9644,1.3776 -0.048,0 -0.5677,-0.5062 -1.1551,-1.125 z m -3.2406,-7.7987 c -0.6521,-1.4024 -0.7538,-5.6661 -0.1878,-7.8736 0.2746,-1.071 0.6214,-2.0695 0.7708,-2.2189 0.1493,-0.1493 0.076,0.3772 -0.1624,1.17 -0.5023,1.6691 -0.5686,5.6535 -0.1324,7.9538 0.3481,1.8353 0.2571,2.1412 -0.2882,0.9687 z m 78.7505,-4.5763 c 0.5392,-1.9728 1.331,-6.4346 1.5971,-9 l 0.2956,-2.85 -0.1112,3.45 c -0.1063,3.2954 -0.9262,7.5192 -1.6867,8.6889 -0.2232,0.3433 -0.2474,0.2694 -0.095,-0.2889 z m -9.2824,-5.9125 c -0.1107,-0.9418 -0.2673,-2.0556 -0.3482,-2.475 l -0.1469,-0.7625 0.3192,0.7344 c 0.4069,0.9361 0.863,4.2156 0.5863,4.2156 -0.115,0 -0.2997,-0.7706 -0.4104,-1.7125 z m 8.0861,-3.026 c -0.1026,-1.6013 -0.3695,-3.9915 -0.5931,-5.3115 -0.2237,-1.32 -0.3789,-2.4317 -0.345,-2.4705 0.034,-0.039 0.5246,0.5688 1.0905,1.35 1.0068,1.39 1.0311,1.4937 1.131,4.8235 0.093,3.0903 0.047,3.4543 -0.4973,3.9616 -0.5959,0.5551 -0.6007,0.5408 -0.7861,-2.3531 z m -52.5525,-0.7308 c -1.4376,-2.1098 -1.444,-2.1237 -0.8196,-1.7645 1.4007,0.8059 2.5956,2.0642 2.4127,2.5408 -0.2958,0.7709 -0.6597,0.5936 -1.5931,-0.7763 z m 2.1351,-1.0541 c -2.6071,-1.7121 -6.0949,-3.8364 -7.9328,-4.8316 -1.6117,-0.8727 -1.836,-1.0845 -1.35,-1.2747 0.4825,-0.1889 0.4279,-0.2377 -0.3172,-0.284 -0.6036,-0.038 -0.7141,-0.1036 -0.3356,-0.2007 0.3105,-0.08 0.8505,-0.01 1.2,0.1642 0.3496,0.17 1.2475,0.3897 1.9954,0.4882 0.7478,0.099 1.7739,0.4311 2.2801,0.7389 1.3792,0.8388 4.8876,4.2093 5.3873,5.1758 0.241,0.466 0.401,0.8394 0.3555,0.8297 -0.045,-0.01 -0.6227,-0.3723 -1.2827,-0.8058 z m -24.2962,-0.1903 c 0.5591,-0.8532 1.9469,-1.966 3.3593,-2.6934 1.1354,-0.5848 7.16,-0.9404 8.3388,-0.4922 1.5697,0.5968 0.7014,0.8642 -2.6269,0.809 -3.8746,-0.064 -5.5581,0.3715 -8.0462,2.083 -1.3803,0.9495 -1.4719,0.9757 -1.025,0.2936 z m 30.6295,-0.8613 c 1.3949,-2.7273 6.7267,-8.2497 8.932,-9.2511 0.6791,-0.3084 1.5722,-0.5572 1.9847,-0.5529 0.5803,0.01 0.3428,0.2176 -1.05,0.935 -3.4664,1.7856 -6.7634,4.7661 -9.0025,8.1384 -1.2647,1.9047 -1.6172,2.2027 -0.8642,0.7306 z m -2.7477,-1.425 c 0.2015,-0.674 0.6259,-2.6507 0.9443,-4.3984 0.4255,-2.3348 7.4078,-10.2122 10.7701,-12.1508 3.9744,-2.2915 8.3635,-3.6652 12.949,-4.0528 2.7925,-0.236 2.8611,0.3159 0.078,0.6307 -4.3177,0.4885 -10.1571,2.8526 -13.9462,5.6463 -1.0003,0.7376 -2.9304,2.5808 -4.2891,4.0961 -2.0415,2.277 -2.8082,3.4404 -4.4178,6.7036 -1.9753,4.0048 -2.4935,4.8794 -2.0887,3.5253 z m -31.6356,-0.8822 c 0,-0.8627 5.826,-3.8122 8.7705,-4.4402 2.0932,-0.4464 6.2804,-0.2241 6.7046,0.356 0.1876,0.2565 0.7312,0.4858 1.208,0.5095 0.4768,0.024 -0.2806,0.1433 -1.6831,0.2658 -1.459,0.1274 -2.623,0.107 -2.7205,-0.048 -0.2164,-0.343 -4.4317,0.2283 -6.2664,0.8493 -0.7497,0.2538 -2.4093,0.9867 -3.6881,1.6288 -1.2787,0.6421 -2.325,1.0374 -2.325,0.8785 z m 65.7,-9.2102 c -0.9075,-0.7433 -2.3587,-1.7594 -3.225,-2.2581 -0.8662,-0.4987 -1.575,-0.952 -1.575,-1.0072 0,-0.1643 1.6601,0.3621 2.4332,0.7714 1.1119,0.5888 3.1681,2.341 3.7003,3.1533 0.6145,0.9377 0.6195,0.9402 -1.3335,-0.6594 z"
         id="path5211"
         inkscape:connector-curvature="0" />
      <path
         style="fill:#8f1e15;fill-opacity:1"
         d="m 1184.9925,1434.2198 c -1.1437,-1.1437 -2.0132,-2.1457 -1.9321,-2.2268 0.2437,-0.2437 2.6227,1.1483 3.0604,1.7907 0.3533,0.5186 1.1747,2.5763 1.0105,2.5316 -0.033,-0.01 -0.9951,-0.9518 -2.1388,-2.0955 z m -6.1706,-1.4659 c -4.7208,-1.0645 -5.3726,-1.4838 -4.6275,-2.9775 0.2593,-0.5197 0.5534,-0.9449 0.6536,-0.9449 0.1001,0 1.0015,0.5291 2.003,1.1757 1.0015,0.6467 2.5972,1.5523 3.5459,2.0125 2.818,1.367 2.3008,1.6081 -1.575,0.7342 z m -9.4534,-7.8483 c -1.0459,-1.0043 -2.5386,-2.7755 -3.3172,-3.936 -1.4482,-2.1584 -3.1067,-5.6725 -3.1213,-6.6131 -0.015,-0.9811 0.5085,-0.53 1.0448,0.9 1.3533,3.6083 3.3191,6.7747 5.9565,9.5941 0.9677,1.0345 1.6647,1.8809 1.549,1.8809 -0.1157,0 -1.066,-0.8217 -2.1118,-1.8259 z m -0.7928,-5.5991 c -1.8654,-1.9651 -4.3168,-6.0361 -4.0737,-6.7652 0.063,-0.19 0.4762,0.2926 0.9175,1.0724 0.4413,0.7798 1.1383,2.0129 1.5489,2.7402 0.4105,0.7273 1.2196,1.9423 1.798,2.7 0.5783,0.7577 1.0123,1.3776 0.9644,1.3776 -0.048,0 -0.5677,-0.5062 -1.1551,-1.125 z m 62.4597,0.4748 c -0.01,-0.1101 0.788,-1.7301 1.7675,-3.6 0.9796,-1.8699 2.1216,-4.4197 2.5378,-5.6664 0.986,-2.9529 1.9787,-9.4048 1.9907,-12.9384 0.01,-2.5489 0.049,-2.7426 0.4591,-2.2002 1.3026,1.7234 1.9849,7.1788 1.3523,10.8119 -0.468,2.6874 -1.6042,5.4387 -3.3221,8.0451 -1.328,2.0147 -4.7555,5.9886 -4.7853,5.548 z m 13.0502,-12.8498 c 0.5392,-1.9728 1.331,-6.4346 1.5971,-9 l 0.2956,-2.85 -0.1112,3.45 c -0.1063,3.2954 -0.9262,7.5192 -1.6867,8.6889 -0.2232,0.3433 -0.2474,0.2694 -0.095,-0.2889 z m -9.2824,-5.9125 c -0.1107,-0.9418 -0.2673,-2.0556 -0.3482,-2.475 l -0.1469,-0.7625 0.3192,0.7344 c 0.4069,0.9361 0.863,4.2156 0.5863,4.2156 -0.115,0 -0.2997,-0.7706 -0.4104,-1.7125 z m 5.7322,-0.9875 c -0.099,-0.2475 -0.4669,-1.439 -0.8166,-2.6477 -0.3497,-1.2088 -1.1691,-3.2102 -1.8208,-4.4478 -0.6518,-1.2375 -1.4643,-3.0835 -1.8056,-4.1023 -0.9668,-2.8858 -2.2972,-4.9551 -4.7954,-7.4586 -1.6137,-1.6171 -2.3415,-2.5787 -2.4352,-3.2174 -0.1241,-0.845 -0.078,-0.8988 0.6382,-0.7429 1.6697,0.3636 4.7203,2.0874 6.0121,3.3973 3.4582,3.5067 5.7586,9.9671 5.6684,15.9194 -0.034,2.2705 -0.3697,3.9856 -0.6451,3.3 z m -50.1986,-2.7693 c -1.4376,-2.1098 -1.444,-2.1237 -0.8196,-1.7645 1.4007,0.8059 2.5956,2.0642 2.4127,2.5408 -0.2958,0.7709 -0.6597,0.5936 -1.5931,-0.7763 z m 8.4684,-2.1057 c 1.3949,-2.7273 6.7267,-8.2497 8.932,-9.2511 0.6791,-0.3084 1.5722,-0.5572 1.9847,-0.5529 0.5803,0.01 0.3428,0.2176 -1.05,0.935 -3.4664,1.7856 -6.7634,4.7661 -9.0025,8.1384 -1.2647,1.9047 -1.6172,2.2027 -0.8642,0.7306 z m -2.7477,-1.425 c 0.2015,-0.674 0.6259,-2.6507 0.9443,-4.3984 0.4255,-2.3348 7.4078,-10.2122 10.7701,-12.1508 3.9744,-2.2915 8.3635,-3.6652 12.949,-4.0528 2.7925,-0.236 2.8611,0.3159 0.078,0.6307 -4.3177,0.4885 -10.1571,2.8526 -13.9462,5.6463 -1.0003,0.7376 -2.9304,2.5808 -4.2891,4.0961 -2.0415,2.277 -2.8082,3.4404 -4.4178,6.7036 -1.9753,4.0048 -2.4935,4.8794 -2.0887,3.5253 z m -13.1856,-3.9 -0.9,-0.229 0.8073,-0.035 c 0.444,-0.02 0.8907,0.1 0.9927,0.2645 0.102,0.165 0.1437,0.284 0.093,0.2645 -0.051,-0.02 -0.4977,-0.1385 -0.9927,-0.2645 z m -6.15,-0.2239 c 0,-0.4293 2.6377,-0.6855 4.05,-0.3934 1.1984,0.248 1.1978,0.2483 -0.4875,0.2828 -0.9281,0.019 -2.1094,0.1189 -2.625,0.222 -0.5481,0.1096 -0.9375,0.063 -0.9375,-0.1114 z m 53.4,-5.9685 c -0.9075,-0.7433 -2.3587,-1.7594 -3.225,-2.2581 -0.8662,-0.4987 -1.575,-0.952 -1.575,-1.0072 0,-0.1643 1.6601,0.3621 2.4332,0.7714 1.1119,0.5888 3.1681,2.341 3.7003,3.1533 0.6145,0.9377 0.6195,0.9402 -1.3335,-0.6594 z"
         id="path5209"
         inkscape:connector-curvature="0" />
    </g>
  </g>
</svg>
